<svg width="14" height="14" viewBox="0 0 14 14" fill="none" xmlns="http://www.w3.org/2000/svg">
<g clip-path="url(#clip0_50_714)">
<path d="M12.1882 0.823517H10.9529V2.05881C10.9529 2.30587 10.747 2.47058 10.5412 2.47058C10.3353 2.47058 10.1294 2.30587 10.1294 2.05881V0.823517H3.54116V2.05881C3.54116 2.30587 3.33527 2.47058 3.12939 2.47058C2.92351 2.47058 2.71763 2.30587 2.71763 2.05881V0.823517H1.48233C0.864684 0.823517 0.411743 1.35881 0.411743 2.05881V3.54116H13.5882V2.05881C13.5882 1.35881 12.847 0.823517 12.1882 0.823517ZM0.411743 4.40587V11.9412C0.411743 12.6823 0.864684 13.1765 1.52351 13.1765H12.2294C12.8882 13.1765 13.6294 12.6412 13.6294 11.9412V4.40587H0.411743ZM4.07645 11.3235H3.08821C2.92351 11.3235 2.7588 11.2 2.7588 10.9941V9.96469C2.7588 9.79999 2.88233 9.63528 3.08821 9.63528H4.11763C4.28233 9.63528 4.44704 9.75881 4.44704 9.96469V10.9941C4.40586 11.2 4.28233 11.3235 4.07645 11.3235ZM4.07645 7.61763H3.08821C2.92351 7.61763 2.7588 7.4941 2.7588 7.28822V6.25881C2.7588 6.0941 2.88233 5.9294 3.08821 5.9294H4.11763C4.28233 5.9294 4.44704 6.05293 4.44704 6.25881V7.28822C4.40586 7.4941 4.28233 7.61763 4.07645 7.61763ZM7.37057 11.3235H6.34115C6.17645 11.3235 6.01174 11.2 6.01174 10.9941V9.96469C6.01174 9.79999 6.13527 9.63528 6.34115 9.63528H7.37057C7.53527 9.63528 7.69998 9.75881 7.69998 9.96469V10.9941C7.69998 11.2 7.57645 11.3235 7.37057 11.3235ZM7.37057 7.61763H6.34115C6.17645 7.61763 6.01174 7.4941 6.01174 7.28822V6.25881C6.01174 6.0941 6.13527 5.9294 6.34115 5.9294H7.37057C7.53527 5.9294 7.69998 6.05293 7.69998 6.25881V7.28822C7.69998 7.4941 7.57645 7.61763 7.37057 7.61763ZM10.6647 11.3235H9.63527C9.47057 11.3235 9.30586 11.2 9.30586 10.9941V9.96469C9.30586 9.79999 9.42939 9.63528 9.63527 9.63528H10.6647C10.8294 9.63528 10.9941 9.75881 10.9941 9.96469V10.9941C10.9941 11.2 10.8706 11.3235 10.6647 11.3235ZM10.6647 7.61763H9.63527C9.47057 7.61763 9.30586 7.4941 9.30586 7.28822V6.25881C9.30586 6.0941 9.42939 5.9294 9.63527 5.9294H10.6647C10.8294 5.9294 10.9941 6.05293 10.9941 6.25881V7.28822C10.9941 7.4941 10.8706 7.61763 10.6647 7.61763Z" fill="#264478"/>
</g>
<defs>
<clipPath id="clip0_50_714">
<rect width="14" height="14" fill="white"/>
</clipPath>
</defs>
</svg>
