<svg width="58" height="21" viewBox="0 0 58 21" fill="none" xmlns="http://www.w3.org/2000/svg">
<g clip-path="url(#clip0_367_692)">
<path fill-rule="evenodd" clip-rule="evenodd" d="M38.2606 14.549C38.2964 14.549 38.3314 14.5379 38.3611 14.5173C38.3909 14.4966 38.4141 14.4672 38.4278 14.4328C38.4415 14.3984 38.445 14.3606 38.4381 14.3241C38.4311 14.2876 38.4138 14.254 38.3885 14.2277C38.3632 14.2014 38.331 14.1835 38.2959 14.1762C38.2608 14.169 38.2244 14.1727 38.1914 14.1869C38.1583 14.2012 38.1301 14.2253 38.1102 14.2562C38.0903 14.2872 38.0797 14.3236 38.0797 14.3608C38.0796 14.3855 38.0843 14.41 38.0934 14.4329C38.1024 14.4557 38.1158 14.4765 38.1326 14.494C38.1494 14.5115 38.1693 14.5253 38.1913 14.5348C38.2133 14.5442 38.2368 14.549 38.2606 14.549ZM38.843 14.549C38.8788 14.549 38.9137 14.5379 38.9435 14.5173C38.9732 14.4966 38.9964 14.4672 39.0101 14.4328C39.0238 14.3984 39.0274 14.3606 39.0204 14.3241C39.0134 14.2876 38.9962 14.254 38.9709 14.2277C38.9456 14.2014 38.9134 14.1835 38.8783 14.1762C38.8432 14.169 38.8068 14.1727 38.7737 14.1869C38.7407 14.2012 38.7124 14.2253 38.6925 14.2562C38.6727 14.2872 38.662 14.3236 38.662 14.3608C38.662 14.4107 38.6811 14.4586 38.715 14.4939C38.749 14.5292 38.795 14.549 38.843 14.549ZM48.6529 14.549C48.6887 14.5491 48.7237 14.5381 48.7535 14.5175C48.7834 14.4968 48.8066 14.4675 48.8204 14.4331C48.8341 14.3987 48.8377 14.3609 48.8308 14.3243C48.8239 14.2878 48.8067 14.2542 48.7814 14.2279C48.7561 14.2015 48.7238 14.1835 48.6887 14.1763C48.6536 14.169 48.6172 14.1727 48.5842 14.1869C48.5511 14.2011 48.5228 14.2252 48.5029 14.2562C48.483 14.2872 48.4724 14.3236 48.4724 14.3608C48.4724 14.4106 48.4914 14.4584 48.5252 14.4937C48.5591 14.529 48.605 14.5489 48.6529 14.549ZM49.2353 14.549C49.2711 14.549 49.3061 14.5379 49.3358 14.5173C49.3656 14.4966 49.3887 14.4672 49.4024 14.4328C49.4161 14.3984 49.4197 14.3606 49.4127 14.3241C49.4058 14.2876 49.3885 14.254 49.3632 14.2277C49.3379 14.2014 49.3057 14.1835 49.2706 14.1762C49.2355 14.169 49.1991 14.1727 49.166 14.1869C49.133 14.2012 49.1047 14.2253 49.0849 14.2562C49.065 14.2872 49.0544 14.3236 49.0544 14.3608C49.0544 14.4105 49.0733 14.4582 49.107 14.4935C49.1406 14.5287 49.1864 14.5487 49.2342 14.549H49.2353ZM52.8048 14.9983L52.7735 14.7587C52.6461 14.7815 52.3533 14.8736 52.3254 14.665C52.3184 14.6127 52.331 14.5596 52.3605 14.5166C52.39 14.4736 52.4342 14.4439 52.484 14.4337C52.5669 14.4241 52.6506 14.4391 52.7257 14.4768L52.801 14.2463C52.7213 14.212 52.635 14.1974 52.5489 14.2035C52.4627 14.2096 52.3792 14.2363 52.3046 14.2816C52.2261 14.3396 52.1708 14.4257 52.1495 14.5234C52.1282 14.6212 52.1422 14.7236 52.1889 14.8113L51.9296 14.8199V15.0018C52.1007 15.0091 52.272 15.0144 52.4433 15.0175C52.4712 15.0171 52.6846 15.0108 52.8048 14.9983ZM31.0104 16.9543C30.9746 16.9543 30.9396 16.9653 30.9099 16.986C30.8801 17.0067 30.8569 17.0361 30.8432 17.0705C30.8295 17.1048 30.826 17.1427 30.8329 17.1792C30.8399 17.2157 30.8571 17.2492 30.8824 17.2755C30.9077 17.3019 30.94 17.3198 30.9751 17.327C31.0102 17.3343 31.0466 17.3306 31.0796 17.3163C31.1127 17.3021 31.1409 17.278 31.1608 17.247C31.1807 17.2161 31.1913 17.1797 31.1913 17.1425C31.1913 17.1178 31.1866 17.0933 31.1775 17.0705C31.1684 17.0476 31.1551 17.0269 31.1383 17.0094C31.1215 16.9919 31.1016 16.9781 31.0796 16.9686C31.0577 16.9592 31.0341 16.9543 31.0104 16.9543ZM31.5927 16.9543C31.5569 16.9543 31.522 16.9653 31.4922 16.986C31.4625 17.0067 31.4393 17.0361 31.4256 17.0705C31.4119 17.1048 31.4083 17.1427 31.4153 17.1792C31.4223 17.2157 31.4395 17.2492 31.4648 17.2755C31.4901 17.3019 31.5223 17.3198 31.5574 17.327C31.5925 17.3343 31.6289 17.3306 31.662 17.3163C31.695 17.3021 31.7233 17.278 31.7432 17.247C31.763 17.2161 31.7737 17.1797 31.7737 17.1425C31.7737 17.0928 31.7548 17.0451 31.7211 17.0098C31.6874 16.9746 31.6417 16.9546 31.5939 16.9543H31.5927ZM53.1079 16.9543C53.0721 16.9543 53.0371 16.9653 53.0073 16.986C52.9776 17.0067 52.9544 17.0361 52.9407 17.0705C52.927 17.1048 52.9234 17.1427 52.9304 17.1792C52.9374 17.2157 52.9546 17.2492 52.9799 17.2755C53.0052 17.3019 53.0375 17.3198 53.0726 17.327C53.1077 17.3343 53.144 17.3306 53.1771 17.3163C53.2102 17.3021 53.2384 17.278 53.2583 17.247C53.2782 17.2161 53.2888 17.1797 53.2888 17.1425C53.2888 17.1178 53.2841 17.0933 53.275 17.0705C53.2659 17.0476 53.2526 17.0269 53.2358 17.0094C53.219 16.9919 53.199 16.9781 53.1771 16.9686C53.1551 16.9592 53.1316 16.9543 53.1079 16.9543ZM53.6902 16.9543C53.6544 16.9542 53.6194 16.9652 53.5896 16.9858C53.5598 17.0064 53.5365 17.0358 53.5228 17.0702C53.509 17.1046 53.5054 17.1424 53.5123 17.1789C53.5193 17.2155 53.5365 17.249 53.5618 17.2754C53.5871 17.3018 53.6193 17.3197 53.6544 17.327C53.6895 17.3343 53.7259 17.3306 53.759 17.3164C53.7921 17.3021 53.8203 17.278 53.8402 17.2471C53.8601 17.2161 53.8708 17.1797 53.8708 17.1425C53.8708 17.0926 53.8518 17.0448 53.8179 17.0095C53.7841 16.9743 53.7381 16.9544 53.6902 16.9543ZM17.3282 17.4032C17.2924 17.4032 17.2575 17.4142 17.2277 17.4349C17.1979 17.4556 17.1748 17.485 17.1611 17.5194C17.1474 17.5538 17.1438 17.5916 17.1508 17.6281C17.1578 17.6646 17.175 17.6981 17.2003 17.7245C17.2256 17.7508 17.2578 17.7687 17.2929 17.776C17.328 17.7832 17.3644 17.7795 17.3975 17.7652C17.4305 17.751 17.4588 17.7269 17.4787 17.6959C17.4985 17.665 17.5091 17.6286 17.5091 17.5914C17.5092 17.5666 17.5045 17.5421 17.4955 17.5192C17.4864 17.4964 17.4731 17.4756 17.4563 17.4581C17.4395 17.4405 17.4195 17.4266 17.3975 17.4172C17.3756 17.4077 17.352 17.4032 17.3282 17.4032ZM17.9106 17.4032C17.8748 17.4031 17.8398 17.4141 17.81 17.4347C17.7802 17.4554 17.7569 17.4847 17.7432 17.5191C17.7294 17.5535 17.7258 17.5913 17.7327 17.6279C17.7396 17.6644 17.7568 17.698 17.7821 17.7243C17.8074 17.7507 17.8397 17.7686 17.8748 17.7759C17.9099 17.7832 17.9463 17.7795 17.9794 17.7653C18.0124 17.7511 18.0407 17.7269 18.0606 17.696C18.0805 17.665 18.0911 17.6286 18.0911 17.5914C18.0912 17.5416 18.0724 17.4938 18.0387 17.4585C18.005 17.4231 17.9592 17.4031 17.9113 17.4028L17.9106 17.4032ZM27.5528 15.2912C27.5886 15.2912 27.6236 15.2801 27.6533 15.2594C27.6831 15.2388 27.7063 15.2094 27.72 15.175C27.7336 15.1406 27.7372 15.1028 27.7302 15.0663C27.7233 15.0298 27.706 14.9962 27.6807 14.9699C27.6554 14.9436 27.6232 14.9257 27.5881 14.9184C27.553 14.9111 27.5166 14.9149 27.4836 14.9291C27.4505 14.9433 27.4222 14.9675 27.4024 14.9984C27.3825 15.0294 27.3719 15.0657 27.3719 15.103C27.372 15.1528 27.3911 15.2006 27.425 15.2358C27.4589 15.271 27.5049 15.2912 27.5528 15.2912ZM19.3026 14.9258C19.3384 14.9258 19.3733 14.9147 19.4031 14.894C19.4328 14.8734 19.456 14.844 19.4697 14.8096C19.4834 14.7752 19.487 14.7374 19.48 14.7009C19.473 14.6643 19.4558 14.6308 19.4305 14.6045C19.4052 14.5782 19.373 14.5603 19.3379 14.553C19.3028 14.5457 19.2664 14.5495 19.2333 14.5637C19.2003 14.5779 19.172 14.6021 19.1521 14.633C19.1323 14.664 19.1216 14.7003 19.1216 14.7376C19.1216 14.7623 19.1263 14.7867 19.1354 14.8095C19.1445 14.8323 19.1579 14.8531 19.1747 14.8705C19.1915 14.8879 19.2114 14.9018 19.2334 14.9112C19.2553 14.9206 19.2788 14.9258 19.3026 14.9258ZM57.3208 14.2545V16.5654H57.6325V14.2542L57.3208 14.2545ZM46.8018 16.5654H47.1135V14.2542H46.8018V16.5654ZM28.8679 16.5654H29.1815V14.2542H28.8694V16.565L28.8679 16.5654ZM56.5025 16.0917C56.5024 16.1504 56.48 16.2065 56.4401 16.248C56.4003 16.2894 56.3462 16.3128 56.2899 16.3129H55.4207C55.4263 16.3062 55.432 16.2999 55.4369 16.2929C55.4863 16.2235 55.5188 16.1427 55.5316 16.0574C55.5443 15.9721 55.5369 15.8849 55.51 15.8032C55.4723 15.6581 55.3517 15.2151 55.046 15.2092H55.0389C54.6808 15.2092 54.461 15.8326 54.4203 15.9584C54.3832 16.0737 54.3544 16.1916 54.334 16.3113C54.1994 16.3148 53.5624 16.3113 53.5624 16.3113C53.5917 16.2421 53.6068 16.1673 53.6065 16.0917V15.2998H53.2944V16.0917C53.2944 16.1504 53.272 16.2066 53.2322 16.2481C53.1923 16.2896 53.1382 16.3129 53.0819 16.3129H52.8934C52.837 16.3128 52.783 16.2894 52.7432 16.248C52.7033 16.2065 52.6809 16.1504 52.6808 16.0917V15.2998H52.3691V16.0917C52.369 16.1504 52.3465 16.2065 52.3067 16.248C52.2669 16.2894 52.2128 16.3128 52.1565 16.3129H49.498C49.4417 16.3128 49.3876 16.2894 49.3478 16.248C49.3079 16.2065 49.2855 16.1504 49.2854 16.0917V14.8928H48.9741V15.0496C48.8288 15.0947 48.6868 15.1501 48.5489 15.2155C48.4065 15.2615 48.2763 15.341 48.1684 15.448C48.0606 15.555 47.9779 15.6865 47.927 15.8322C47.9146 15.8874 47.9156 15.9449 47.9298 15.9997C47.944 16.0544 47.971 16.1046 48.0084 16.1459C48.0998 16.2207 48.2047 16.2758 48.3168 16.3081C48.429 16.3403 48.5462 16.349 48.6616 16.3337C48.7801 16.3328 48.8984 16.3242 49.0159 16.3082C49.0563 16.4065 49.1236 16.4903 49.2093 16.5493C49.2951 16.6082 49.3956 16.6397 49.4984 16.6399H52.155C52.2529 16.5386 52.3854 16.4819 52.5234 16.4819C52.6615 16.4819 52.7939 16.5386 52.8919 16.6399H53.0803C53.2144 16.6398 53.3432 16.5861 53.4403 16.4901V16.6367C53.4403 16.6367 54.1874 16.6402 54.305 16.6367C54.2925 16.7918 54.3271 16.9471 54.4039 17.0807C54.4806 17.2143 54.5956 17.3195 54.7328 17.3816C54.8212 17.4187 54.9157 17.4375 55.011 17.4369C55.1269 17.4432 55.2422 17.4166 55.3447 17.3599C55.4472 17.3033 55.533 17.2188 55.5929 17.1154C55.6284 17.0373 55.641 16.9501 55.6293 16.8646C55.6175 16.7791 55.582 16.6991 55.527 16.6344H56.288C56.4271 16.6343 56.5605 16.5767 56.6589 16.4744C56.7573 16.3721 56.8126 16.2333 56.8127 16.0886V14.2542H56.5006V16.0917H56.5025ZM48.2353 15.9204C48.2315 15.9165 48.2293 15.9141 48.2327 15.8957C48.2704 15.6997 48.6503 15.4986 48.9741 15.386V15.982C48.7272 16.0349 48.4709 16.0138 48.2353 15.9204ZM54.7155 16.062C54.7584 15.8515 54.8725 15.6641 55.037 15.5338C55.1371 15.625 55.1988 15.7534 55.2089 15.8914C55.2225 15.9244 55.2277 15.9604 55.2242 15.9961C55.2206 16.0318 55.2083 16.0659 55.1885 16.0953C55.0369 16.2237 54.8469 16.2931 54.6514 16.2913C54.669 16.2135 54.6904 16.1367 54.7155 16.0612V16.062ZM55.314 16.977C55.2581 17.0436 55.1832 17.0899 55.1003 17.1093C55.0173 17.1287 54.9306 17.1201 54.8527 17.0848C54.7717 17.0433 54.7052 16.9766 54.6623 16.894C54.6194 16.8114 54.6023 16.717 54.6133 16.6238C54.7788 16.6119 54.9423 16.5787 55.0999 16.525L55.0389 16.6371C55.113 16.6567 55.1794 16.7 55.2287 16.7608C55.2781 16.8216 55.3079 16.8969 55.314 16.9762V16.977ZM25.1861 16.565H25.4982V14.2542H25.1861V16.565ZM24.3666 16.0917C24.3666 16.1503 24.3443 16.2065 24.3045 16.248C24.2647 16.2894 24.2107 16.3128 24.1544 16.3129H23.5396C23.5449 16.3015 23.5502 16.2901 23.5547 16.278C23.6311 16.0395 23.6146 15.7794 23.5087 15.5534C23.4673 15.445 23.3971 15.3511 23.3062 15.2827C23.2154 15.2144 23.1077 15.1743 22.9957 15.1673H22.9927C22.8786 15.1743 22.7688 15.2148 22.6761 15.2843C22.5833 15.3537 22.5114 15.4491 22.4688 15.5593C22.4192 15.6683 22.3767 15.7807 22.3418 15.8957C22.2453 16.1913 22.2057 16.314 21.8936 16.314H21.592C21.5563 16.0646 21.4652 15.8272 21.326 15.6206C21.1869 15.414 21.0035 15.2439 20.7903 15.1237L20.6467 15.4119C20.8086 15.5054 20.949 15.6346 21.0581 15.7903C21.1671 15.9461 21.2422 16.1246 21.2781 16.3137H20.3026V16.6383H21.8932C22.0657 16.6496 22.2363 16.5959 22.3738 16.4869C22.5528 16.5925 22.7561 16.6452 22.9618 16.6395C23.0607 16.6423 23.1593 16.6272 23.2532 16.5948C23.2707 16.5878 23.2878 16.5798 23.3044 16.5708V16.6395H24.154C24.2931 16.6393 24.4264 16.5817 24.5247 16.4794C24.623 16.377 24.6782 16.2384 24.6783 16.0937V14.2542H24.3662V16.0917H24.3666ZM23.2649 16.1588C23.2546 16.1887 23.2383 16.2159 23.2169 16.2386C23.1956 16.2613 23.1698 16.2789 23.1412 16.2901C22.9442 16.3331 22.7391 16.309 22.5562 16.2215C22.5868 16.1484 22.6139 16.0736 22.6373 15.9977C22.6679 15.8964 22.7051 15.7974 22.7485 15.7013C22.767 15.6465 22.7995 15.5981 22.8426 15.5612C22.8856 15.5243 22.9375 15.5003 22.9927 15.4919C23.0459 15.4995 23.096 15.5225 23.1373 15.5581C23.1786 15.5938 23.2095 15.6408 23.2264 15.6938C23.2946 15.8381 23.3079 16.0039 23.2637 16.158L23.2649 16.1588ZM41.5554 15.1684H41.5527C41.4386 15.1755 41.3288 15.216 41.2361 15.2854C41.1433 15.3548 41.0714 15.4502 41.0288 15.5605C40.9791 15.6694 40.9365 15.7816 40.9014 15.8965C40.8053 16.1921 40.7653 16.3144 40.4536 16.3144H39.1818C39.1255 16.3143 39.0715 16.291 39.0316 16.2496C38.9918 16.2081 38.9693 16.1519 38.9692 16.0933V14.8928H38.6571V15.0496C38.5121 15.0948 38.3701 15.1502 38.2323 15.2155C38.09 15.2615 37.9598 15.341 37.8519 15.448C37.744 15.555 37.6614 15.6865 37.6104 15.8322C37.598 15.8874 37.5989 15.945 37.6131 15.9997C37.6273 16.0544 37.6544 16.1047 37.6918 16.1459C37.7832 16.2207 37.888 16.2758 38.0001 16.308C38.1122 16.3403 38.2293 16.349 38.3447 16.3337C38.4633 16.3328 38.5817 16.3243 38.6994 16.3082C38.7398 16.4065 38.807 16.4903 38.8928 16.5493C38.9785 16.6082 39.079 16.6397 39.1818 16.6399H40.4517C40.6244 16.6514 40.7952 16.5975 40.9327 16.4881C41.202 16.6389 41.5163 16.6775 41.812 16.5963C41.8808 16.5692 41.9432 16.5272 41.9951 16.4731C42.0471 16.4191 42.0875 16.3542 42.1136 16.2827C42.1901 16.0443 42.1737 15.7842 42.068 15.5582C42.0272 15.449 41.9573 15.3542 41.8665 15.285C41.7757 15.2159 41.6677 15.1751 41.5554 15.1677V15.1684ZM37.9184 15.9208C37.915 15.9169 37.9123 15.9145 37.9161 15.8961C37.9538 15.7001 38.3334 15.499 38.6571 15.3864V15.9824C38.4102 16.0351 38.1539 16.0135 37.9184 15.92V15.9208ZM41.8245 16.1596C41.8144 16.1896 41.798 16.2169 41.7767 16.2397C41.7553 16.2624 41.7294 16.2801 41.7008 16.2913C41.5039 16.3343 41.2988 16.3104 41.1159 16.2231C41.1465 16.1499 41.1735 16.0752 41.1969 15.9992C41.2282 15.8978 41.266 15.7986 41.31 15.7024C41.3284 15.6477 41.361 15.5992 41.404 15.5623C41.4471 15.5254 41.499 15.5015 41.5542 15.4931C41.6074 15.5007 41.6575 15.5236 41.6988 15.5593C41.7401 15.595 41.771 15.642 41.7879 15.695C41.8557 15.8393 41.8688 16.0049 41.8245 16.1588V16.1596ZM36.3673 16.0917C36.3672 16.1504 36.3448 16.2065 36.3049 16.248C36.2651 16.2894 36.2111 16.3128 36.1547 16.3129H35.964C35.9076 16.3128 35.8536 16.2894 35.8138 16.248C35.7739 16.2065 35.7515 16.1504 35.7514 16.0917V14.2542H35.4385V16.0917C35.4384 16.1504 35.416 16.2065 35.3762 16.248C35.3363 16.2894 35.2823 16.3128 35.226 16.3129H34.7789C34.7918 16.1399 34.7699 15.966 34.7144 15.8024C34.6589 15.6388 34.5711 15.4891 34.4566 15.3629C34.1585 15.1069 33.7556 15.2684 33.468 15.4535C33.3003 15.5642 33.1446 15.6935 33.0036 15.8389V14.2549H32.6915V16.3129H31.4099C31.4398 16.2433 31.4552 16.1679 31.4552 16.0917V15.2998H31.1434V16.0917C31.1433 16.1504 31.1209 16.2065 31.0811 16.248C31.0412 16.2894 30.9872 16.3128 30.9308 16.3129H30.2746C30.2183 16.3128 30.1642 16.2894 30.1244 16.248C30.0845 16.2065 30.0621 16.1504 30.062 16.0917V15.2998H29.7499V16.5622C29.7499 16.6818 29.7043 16.7966 29.623 16.8812C29.5417 16.9658 29.4315 17.0134 29.3165 17.0135V17.3385C29.5095 17.3382 29.6949 17.2602 29.8339 17.1208C29.9728 16.9814 30.0544 16.7915 30.0616 16.5908C30.1287 16.6219 30.2012 16.638 30.2746 16.6379H30.9331C31.0346 16.638 31.1339 16.6072 31.2188 16.5493V16.6379H35.2271C35.325 16.5367 35.4575 16.4799 35.5955 16.4799C35.7336 16.4799 35.866 16.5367 35.964 16.6379H36.1547C36.2938 16.6377 36.4271 16.5801 36.5254 16.4778C36.6237 16.3755 36.6789 16.2368 36.679 16.0921V14.2542H36.3673V16.0917ZM33.0047 16.1945C33.1346 16.0635 33.2752 15.9445 33.425 15.8389C33.5905 15.7062 33.7817 15.6125 33.9855 15.5644C34.0707 15.544 34.1603 15.559 34.235 15.6064C34.2956 15.6563 34.3417 15.7229 34.3681 15.7985C34.4274 15.9634 34.4593 16.1376 34.4623 16.3137H33.0047V16.196V16.1945ZM19.62 16.0917C19.6199 16.1504 19.5974 16.2065 19.5576 16.248C19.5177 16.2894 19.4637 16.3128 19.4074 16.3129H19.2683C19.2106 16.3136 19.1549 16.2909 19.1131 16.2496C19.0713 16.2083 19.0466 16.1517 19.0444 16.0917V15.6605C19.0461 15.5984 19.0341 15.5367 19.0093 15.4801C18.9846 15.4236 18.9477 15.3737 18.9015 15.3343C18.8424 15.2898 18.7745 15.2597 18.7028 15.2461C18.631 15.2325 18.5572 15.2359 18.4869 15.2559C18.3511 15.2836 18.228 15.3578 18.1374 15.4666C18.0468 15.5755 17.9937 15.7127 17.9867 15.8565V16.6014C17.9817 16.6414 17.9654 16.6789 17.94 16.7093C17.9146 16.7397 17.8812 16.7616 17.8439 16.7724C17.7133 16.8207 17.5727 16.8316 17.4367 16.804C17.3007 16.7765 17.1743 16.7114 17.0708 16.6155C16.9674 16.4856 16.9044 16.326 16.8903 16.1579C16.8761 15.9898 16.9115 15.8213 16.9916 15.6746L16.7006 15.557C16.4349 16.2788 16.6829 16.6755 16.854 16.8476C17.054 17.0401 17.3174 17.1453 17.5898 17.1413C17.7189 17.1429 17.847 17.1179 17.9667 17.0676C18.0618 17.034 18.1447 16.9709 18.2042 16.8868C18.2636 16.8026 18.2968 16.7015 18.2992 16.5971V15.8565C18.3055 15.7856 18.3344 15.7189 18.3812 15.6669C18.428 15.615 18.4902 15.5807 18.5578 15.5695C18.5826 15.561 18.6088 15.5581 18.6348 15.5608C18.6608 15.5636 18.6859 15.572 18.7085 15.5856C18.7181 15.5945 18.7255 15.6058 18.7299 15.6184C18.7343 15.631 18.7356 15.6445 18.7338 15.6577V16.089C18.7371 16.2347 18.795 16.3733 18.8951 16.4752C18.9953 16.5771 19.1297 16.6344 19.2698 16.6348H19.4085C19.5476 16.6347 19.681 16.5771 19.7794 16.4748C19.8778 16.3725 19.9331 16.2337 19.9332 16.089V15.297H19.6211V16.0917H19.62ZM28.0847 16.6014C28.0797 16.6413 28.0635 16.6788 28.0382 16.7092C28.0128 16.7396 27.9794 16.7616 27.9422 16.7724C27.8116 16.8207 27.6709 16.8317 27.5348 16.8041C27.3987 16.7765 27.2723 16.7114 27.1687 16.6155C27.0654 16.4855 27.0026 16.3259 26.9885 16.1578C26.9744 15.9898 27.0098 15.8213 27.0899 15.6746L26.7986 15.557C26.5347 16.2788 26.7809 16.6755 26.9524 16.8476C27.1522 17.0401 27.4155 17.1452 27.6877 17.1413C27.8168 17.1429 27.945 17.1179 28.0647 17.0676C28.1598 17.0341 28.2428 16.971 28.3023 16.8869C28.3618 16.8027 28.3951 16.7016 28.3975 16.5971V15.2955H28.0847V16.6014ZM45.9835 16.0917C45.9835 16.1502 45.9613 16.2063 45.9217 16.2477C45.882 16.2891 45.8282 16.3126 45.7721 16.3129H45.659C45.398 16.3219 45.137 16.2974 44.8818 16.2399L44.9051 16.2196C45.0085 16.1398 45.0933 16.0368 45.1531 15.9182C45.2128 15.7996 45.2461 15.6685 45.2504 15.5346C45.2348 15.4574 45.1988 15.3862 45.1464 15.329C45.0941 15.2718 45.0275 15.2309 44.9541 15.2108L44.9372 15.2037L44.9198 15.2014C44.64 15.1644 44.357 15.1616 44.0766 15.1931H44.0585L44.0416 15.1994C43.9795 15.2168 43.923 15.2512 43.8781 15.2991C43.8332 15.3469 43.8015 15.4065 43.7864 15.4715C43.7897 15.6108 43.8222 15.7477 43.8816 15.8726C43.9409 15.9975 44.0258 16.1075 44.1302 16.1949C44.149 16.2141 44.1678 16.2341 44.1897 16.2509C43.9987 16.2958 43.8031 16.3157 43.6073 16.3101H43.1498C43.0934 16.31 43.0395 16.2867 42.9997 16.2452C42.9599 16.2038 42.9376 16.1476 42.9376 16.089V14.2542H42.6255V16.0917C42.6257 16.2364 42.6809 16.375 42.7792 16.4773C42.8775 16.5796 43.0107 16.6372 43.1498 16.6375H43.6077C43.9275 16.6551 44.2469 16.5968 44.5418 16.467C44.9004 16.5986 45.2802 16.6564 45.6601 16.6371H45.7732C45.9116 16.636 46.044 16.578 46.1415 16.4759C46.2391 16.3738 46.2939 16.2357 46.2941 16.0917V14.2542H45.982V16.0917H45.9835ZM44.702 15.9714C44.6474 16.0198 44.5894 16.064 44.5286 16.1035C44.4624 16.0659 44.4013 16.0194 44.3469 15.9651C44.2175 15.8595 44.1268 15.7111 44.0898 15.5444C44.0985 15.53 44.1119 15.5192 44.1275 15.5142C44.3711 15.4885 44.6168 15.491 44.8599 15.5217C44.8775 15.5263 44.8939 15.535 44.9078 15.5471C44.9218 15.5592 44.933 15.5743 44.9406 15.5915C44.9114 15.7451 44.8262 15.881 44.7027 15.9706L44.702 15.9714Z" fill="#58595B"/>
<path fill-rule="evenodd" clip-rule="evenodd" d="M16.5593 19.3326C16.5593 18.6806 16.8895 18.2466 17.3886 18.2466C17.5271 18.2456 17.6627 18.2876 17.7781 18.3672C17.8935 18.4468 17.9835 18.5604 18.0365 18.6935L17.7617 18.8252C17.7315 18.7474 17.6801 18.6804 17.6138 18.6325C17.5476 18.5846 17.4693 18.5578 17.3886 18.5555C17.0983 18.5555 16.9031 18.8547 16.9031 19.3326C16.9031 19.8105 17.0983 20.1112 17.3886 20.1112C17.4521 20.1118 17.515 20.0987 17.5734 20.0727C17.6318 20.0467 17.6844 20.0084 17.7278 19.9603V19.5682H17.3V19.264H18.0489V20.0979C17.9696 20.2004 17.869 20.2829 17.7546 20.3392C17.6402 20.3955 17.5151 20.4241 17.3886 20.4229C16.8876 20.4229 16.5593 19.981 16.5593 19.3326ZM18.3686 19.62C18.3563 19.5238 18.3632 19.426 18.3889 19.3327C18.4146 19.2394 18.4585 19.1526 18.5179 19.0777C18.5773 19.0029 18.6509 18.9416 18.7341 18.8977C18.8173 18.8538 18.9083 18.8282 19.0014 18.8225C19.4017 18.8225 19.6158 19.1718 19.6158 19.6329V19.7242H18.6777C18.6736 19.7797 18.6806 19.8354 18.6981 19.8879C18.7155 19.9404 18.7432 19.9887 18.7793 20.0297C18.8154 20.0707 18.8592 20.1036 18.9079 20.1263C18.9567 20.149 19.0094 20.1611 19.0629 20.1618C19.1261 20.16 19.1883 20.1446 19.2455 20.1165C19.3028 20.0884 19.3538 20.0483 19.3953 19.9987L19.5431 20.1865C19.4459 20.2975 19.3172 20.3735 19.1756 20.4032C19.0341 20.4329 18.8871 20.4149 18.7561 20.3517C18.6251 20.2886 18.5169 20.1836 18.4472 20.052C18.3775 19.9205 18.35 19.7689 18.3686 19.62ZM18.9988 19.0777C18.9026 19.0904 18.8149 19.1416 18.7544 19.2205C18.6938 19.2993 18.6653 19.3996 18.6747 19.5H19.3192C19.3259 19.4502 19.3228 19.3995 19.3102 19.351C19.2975 19.3025 19.2756 19.2572 19.2456 19.2177C19.2157 19.1783 19.1784 19.1455 19.136 19.1215C19.0936 19.0974 19.0469 19.0825 18.9988 19.0777ZM20.7685 20.3825V19.3459C20.7749 19.3145 20.7742 19.282 20.7662 19.251C20.7583 19.22 20.7435 19.1913 20.7229 19.1674C20.7023 19.1435 20.6766 19.125 20.6479 19.1133C20.6191 19.1017 20.5881 19.0973 20.5574 19.1005C20.4938 19.1052 20.4325 19.1273 20.3796 19.1643C20.3267 19.2014 20.284 19.2522 20.2559 19.3118V20.3829H19.9506V18.8617H20.2559V19.0652C20.3044 18.993 20.3683 18.9336 20.4427 18.8916C20.5171 18.8497 20.5999 18.8263 20.6844 18.8233C20.7377 18.8166 20.7917 18.8227 20.8424 18.8412C20.893 18.8597 20.9388 18.8901 20.9763 18.9301C21.0138 18.97 21.0419 19.0184 21.0585 19.0715C21.0751 19.1246 21.0797 19.1809 21.0719 19.2361V20.3833H20.7666L20.7685 20.3825ZM21.4228 19.6203C21.4106 19.5242 21.4174 19.4265 21.4431 19.3332C21.4687 19.24 21.5126 19.1532 21.5719 19.0784C21.6312 19.0036 21.7047 18.9423 21.7878 18.8983C21.871 18.8543 21.9619 18.8287 22.055 18.8229C22.4556 18.8229 22.6701 19.1722 22.6701 19.6333V19.7246H21.7312C21.7273 19.78 21.7343 19.8357 21.7518 19.8882C21.7693 19.9407 21.797 19.9889 21.833 20.0299C21.8691 20.0708 21.9128 20.1037 21.9616 20.1265C22.0103 20.1492 22.063 20.1614 22.1164 20.1622C22.1797 20.1605 22.242 20.1451 22.2993 20.117C22.3566 20.0889 22.4076 20.0488 22.4492 19.9991L22.5962 20.1869C22.4994 20.2988 22.3707 20.3755 22.2289 20.4057C22.0871 20.4359 21.9398 20.418 21.8085 20.3547C21.6772 20.2913 21.5689 20.1859 21.4995 20.0538C21.4301 19.9217 21.4032 19.7695 21.4228 19.6203ZM22.0523 19.0781C21.9561 19.0907 21.8684 19.1419 21.8079 19.2208C21.7474 19.2997 21.7189 19.4 21.7285 19.5004H22.3735C22.3801 19.4505 22.377 19.3998 22.3643 19.3513C22.3517 19.3027 22.3296 19.2573 22.2996 19.2179C22.2696 19.1784 22.2322 19.1457 22.1897 19.1217C22.1472 19.0976 22.1005 19.0828 22.0523 19.0781ZM23.0063 20.3829V18.8617H23.3116V19.0844C23.3533 19.0094 23.4124 18.9465 23.4834 18.9014C23.5544 18.8563 23.6352 18.8304 23.7183 18.826V19.1397C23.6922 19.1337 23.6656 19.1307 23.6388 19.1307C23.572 19.1356 23.5074 19.1573 23.4504 19.1939C23.3934 19.2305 23.3458 19.2809 23.3116 19.3408V20.3841H23.0063V20.3829ZM24.7734 20.3829V20.2277C24.7273 20.2887 24.6682 20.3377 24.6007 20.371C24.5333 20.4042 24.4594 20.4206 24.3848 20.419C24.3223 20.4192 24.2605 20.4059 24.2032 20.38C24.1459 20.3541 24.0943 20.3162 24.0519 20.2685C24.0094 20.2209 23.9768 20.1647 23.9563 20.1033C23.9357 20.0419 23.9276 19.9768 23.9324 19.912C23.9273 19.8478 23.9354 19.7832 23.956 19.7225C23.9766 19.6617 24.0094 19.6062 24.0521 19.5595C24.0948 19.5129 24.1465 19.4762 24.2039 19.4518C24.2612 19.4274 24.3228 19.4159 24.3848 19.418C24.4586 19.4151 24.5321 19.4301 24.5996 19.4616C24.667 19.4932 24.7265 19.5405 24.7734 19.6V19.3796C24.7767 19.3399 24.7714 19.2999 24.758 19.2625C24.7445 19.2252 24.7233 19.1914 24.6958 19.1637C24.6682 19.1359 24.6351 19.1149 24.5988 19.1022C24.5624 19.0894 24.5238 19.0852 24.4858 19.0899C24.4164 19.0908 24.3481 19.1067 24.285 19.1366C24.2219 19.1665 24.1655 19.2097 24.1194 19.2636L23.9999 19.0424C24.1451 18.8976 24.3393 18.8183 24.5404 18.8217C24.6101 18.8108 24.6812 18.8164 24.7485 18.838C24.8158 18.8597 24.8774 18.897 24.9289 18.947C24.9804 18.997 25.0204 19.0585 25.0458 19.1268C25.0712 19.1951 25.0814 19.2686 25.0757 19.3416V20.3817H24.7741L24.7734 20.3829ZM24.7734 20.0355V19.805C24.7453 19.7539 24.7048 19.7113 24.656 19.6814C24.6073 19.6516 24.5518 19.6355 24.4952 19.6349C24.4259 19.6395 24.3609 19.6714 24.3134 19.7241C24.2659 19.7768 24.2395 19.8463 24.2395 19.9185C24.2395 19.9907 24.2659 20.0602 24.3134 20.1129C24.3609 20.1656 24.4259 20.1975 24.4952 20.2022C24.5515 20.2014 24.6066 20.1855 24.6553 20.1562C24.704 20.1269 24.7447 20.0851 24.7734 20.0348M25.4974 18.2807H25.8031V20.3821H25.4974V18.2807ZM28.0168 20.3821L27.9068 19.9661H27.237L27.1269 20.3821H26.7602L27.3681 18.2807H27.7745L28.3828 20.3821H28.0168ZM27.5728 18.6531L27.309 19.6576H27.8412L27.5728 18.6531ZM29.4292 20.3821V20.1806C29.3806 20.2531 29.3161 20.3125 29.2411 20.3541C29.166 20.3956 29.0826 20.418 28.9976 20.4194C28.9447 20.4265 28.8909 20.4207 28.8404 20.4025C28.79 20.3843 28.7443 20.3542 28.707 20.3145C28.6696 20.2749 28.6416 20.2267 28.6252 20.1739C28.6088 20.121 28.6044 20.065 28.6124 20.0101V18.8605H28.9177V19.9003C28.9116 19.9314 28.9127 19.9636 28.9208 19.9943C28.9289 20.0249 28.9438 20.0532 28.9644 20.0767C28.9849 20.1002 29.0105 20.1184 29.0391 20.1297C29.0677 20.141 29.0984 20.1451 29.1288 20.1418C29.1918 20.1367 29.2525 20.115 29.3053 20.0788C29.358 20.0426 29.401 19.993 29.4303 19.9348V18.8605H29.736V20.3817H29.4303L29.4292 20.3821ZM30.2113 20.0414V19.1338H30.0187V18.8594H30.2113V18.4442H30.517V18.8601H30.762V19.1346H30.517V19.9759C30.517 20.0802 30.5506 20.1426 30.6301 20.1426C30.6518 20.1433 30.6734 20.1392 30.6935 20.1305C30.7135 20.1218 30.7315 20.1086 30.7462 20.092L30.8193 20.3272C30.7463 20.3924 30.6514 20.4249 30.5555 20.4178C30.5073 20.4235 30.4586 20.4174 30.4131 20.4001C30.3676 20.3828 30.3266 20.3546 30.2934 20.3179C30.2601 20.2813 30.2356 20.237 30.2217 20.1888C30.2078 20.1405 30.2049 20.0895 30.2132 20.0399M31.9037 20.3806V19.3388C31.9095 19.3076 31.908 19.2753 31.8995 19.2447C31.891 19.2141 31.8757 19.186 31.8548 19.1627C31.8339 19.1394 31.808 19.1216 31.7793 19.1106C31.7505 19.0997 31.7197 19.0959 31.6893 19.0997C31.6263 19.1057 31.5659 19.1282 31.5136 19.1652C31.4613 19.2022 31.4189 19.2523 31.3904 19.311V20.3821H31.0843V18.2807H31.3904V19.0648C31.4393 18.9926 31.5037 18.9331 31.5784 18.8911C31.6532 18.8492 31.7363 18.8258 31.8212 18.8229C31.8742 18.8155 31.9281 18.8211 31.9787 18.8392C32.0292 18.8573 32.075 18.8875 32.1125 18.9272C32.1499 18.9669 32.1779 19.0152 32.1943 19.0681C32.2106 19.121 32.2149 19.1772 32.2068 19.2322V20.3829H31.9052L31.9037 20.3806ZM32.5554 19.6184C32.5781 19.4922 32.6348 19.3754 32.7189 19.2816C32.803 19.1877 32.9111 19.1207 33.0305 19.0885C33.1499 19.0562 33.2757 19.06 33.3931 19.0993C33.5105 19.1387 33.6147 19.212 33.6935 19.3107C33.7723 19.4095 33.8225 19.5295 33.8381 19.6568C33.8537 19.7841 33.8342 19.9133 33.7817 20.0295C33.7293 20.1456 33.6461 20.2438 33.5419 20.3126C33.4378 20.3814 33.317 20.4179 33.1936 20.4178C33.0997 20.4133 33.0077 20.3884 32.9235 20.3448C32.8394 20.3013 32.7649 20.2399 32.7048 20.1646C32.6448 20.0894 32.6005 20.002 32.5747 19.9079C32.549 19.8138 32.5424 19.7152 32.5554 19.6184ZM33.5178 19.6184C33.4914 19.5579 33.4499 19.5059 33.3975 19.4678C33.3452 19.4298 33.2839 19.4071 33.2203 19.4022C33.1566 19.3973 33.0928 19.4103 33.0356 19.4399C32.9784 19.4695 32.93 19.5146 32.8953 19.5704C32.8607 19.6262 32.8412 19.6906 32.8388 19.757C32.8364 19.8234 32.8512 19.8892 32.8817 19.9476C32.9122 20.0059 32.9573 20.0546 33.0122 20.0886C33.0671 20.1226 33.1297 20.1405 33.1936 20.1406C33.2484 20.1295 33.3004 20.107 33.3466 20.0745C33.3928 20.0419 33.4322 20 33.4625 19.9513C33.4928 19.9025 33.5133 19.8479 33.5228 19.7907C33.5323 19.7335 33.5306 19.6749 33.5178 19.6184ZM34.1811 20.3806V18.8594H34.4868V19.082C34.5284 19.007 34.5875 18.9441 34.6585 18.8989C34.7296 18.8538 34.8104 18.8279 34.8935 18.8237V19.1373C34.8673 19.1313 34.8405 19.1283 34.8136 19.1283C34.7469 19.1333 34.6823 19.155 34.6254 19.1916C34.5685 19.2282 34.521 19.2786 34.4868 19.3385V20.3817H34.1796L34.1811 20.3806ZM35.1442 18.4712C35.1447 18.4184 35.1652 18.3679 35.2012 18.3307C35.2373 18.2935 35.286 18.2725 35.3368 18.2724C35.3738 18.2733 35.4097 18.2854 35.4401 18.3074C35.4705 18.3293 35.494 18.36 35.5077 18.3958C35.5214 18.4315 35.5247 18.4706 35.5172 18.5083C35.5096 18.546 35.4916 18.5805 35.4654 18.6076C35.4391 18.6347 35.4058 18.6531 35.3695 18.6607C35.3333 18.6682 35.2957 18.6645 35.2614 18.6499C35.2272 18.6354 35.1978 18.6107 35.177 18.5789C35.1561 18.5471 35.1447 18.5097 35.1442 18.4712ZM35.1819 18.859H35.4876V20.3802H35.1819V18.859ZM35.9648 20.0395V19.1338H35.7722V18.8594H35.9663V18.4442H36.272V18.8601H36.5166V19.1346H36.272V19.9759C36.272 20.0802 36.3063 20.1426 36.3851 20.1426C36.4068 20.1432 36.4284 20.139 36.4485 20.1303C36.4686 20.1216 36.4867 20.1085 36.5015 20.092L36.5746 20.3272C36.5015 20.3922 36.4068 20.4248 36.3108 20.4178C36.2626 20.4236 36.2138 20.4177 36.1682 20.4004C36.1226 20.3831 36.0815 20.355 36.0482 20.3183C36.0149 20.2816 35.9902 20.2373 35.9763 20.189C35.9623 20.1406 35.9594 20.0896 35.9678 20.0399M36.8328 20.6981C36.8633 20.7133 36.8967 20.721 36.9305 20.7209C36.9684 20.7245 37.0064 20.7137 37.0372 20.6904C37.0681 20.6671 37.0898 20.6329 37.0982 20.5942L37.16 20.4123L36.6647 18.8597H36.9893L37.3161 20.0026L37.6463 18.8597H37.97L37.3865 20.6672C37.3655 20.7679 37.3097 20.8572 37.2297 20.9181C37.1497 20.979 37.051 21.0073 36.9523 20.9977C36.8968 20.9972 36.8415 20.99 36.7876 20.9761L36.8328 20.6981ZM38.8505 19.6184C38.8732 19.4923 38.9299 19.3754 39.014 19.2816C39.0981 19.1878 39.2062 19.1208 39.3255 19.0885C39.4449 19.0562 39.5707 19.06 39.6881 19.0993C39.8055 19.1386 39.9097 19.2119 39.9885 19.3106C40.0673 19.4093 40.1175 19.5293 40.1332 19.6565C40.1488 19.7838 40.1293 19.9131 40.0769 20.0292C40.0245 20.1454 39.9414 20.2436 39.8373 20.3124C39.7332 20.3812 39.6124 20.4178 39.4891 20.4178C39.3952 20.4132 39.3032 20.3883 39.2191 20.3447C39.1349 20.3011 39.0604 20.2398 39.0003 20.1645C38.9403 20.0893 38.8959 20.0019 38.8701 19.9079C38.8443 19.8138 38.8377 19.7153 38.8505 19.6184ZM39.8132 19.6184C39.7869 19.5579 39.7453 19.5059 39.693 19.4678C39.6406 19.4298 39.5794 19.4071 39.5157 19.4022C39.452 19.3973 39.3883 19.4103 39.3311 19.4399C39.2739 19.4695 39.2255 19.5146 39.1908 19.5704C39.1562 19.6262 39.1366 19.6906 39.1342 19.757C39.1318 19.8234 39.1467 19.8892 39.1772 19.9476C39.2077 20.0059 39.2528 20.0546 39.3077 20.0886C39.3625 20.1226 39.4252 20.1405 39.4891 20.1406C39.5438 20.1295 39.5959 20.107 39.6421 20.0745C39.6883 20.0419 39.7277 20 39.758 19.9513C39.7883 19.9025 39.8088 19.8479 39.8182 19.7907C39.8277 19.7335 39.826 19.6749 39.8132 19.6184ZM40.5377 20.3806V19.1338H40.3454V18.8594H40.5377V18.7186C40.5302 18.6583 40.5355 18.5971 40.5532 18.5391C40.5708 18.4812 40.6004 18.428 40.6399 18.3832C40.6794 18.3384 40.7278 18.3031 40.7818 18.2798C40.8357 18.2564 40.8939 18.2456 40.9523 18.2481C41.0609 18.2436 41.167 18.2824 41.2489 18.3567L41.1449 18.5763C41.1275 18.5563 41.1063 18.5403 41.0826 18.5295C41.0589 18.5186 41.0332 18.513 41.0073 18.5132C40.9826 18.5127 40.9581 18.5179 40.9357 18.5286C40.9132 18.5392 40.8933 18.555 40.8774 18.5747C40.8616 18.5944 40.8502 18.6176 40.8441 18.6425C40.838 18.6674 40.8374 18.6934 40.8422 18.7186V18.8601H41.0865V19.1346H40.8422V20.3825H40.5347L40.5377 20.3806ZM42.0239 19.331C42.0239 18.6986 42.3443 18.245 42.8554 18.245C42.9953 18.245 43.132 18.2893 43.2471 18.372C43.3622 18.4547 43.4504 18.5719 43.5 18.708L43.2188 18.8366C43.1925 18.757 43.1438 18.6874 43.079 18.637C43.0142 18.5866 42.9363 18.5577 42.8554 18.5539C42.5539 18.5539 42.3692 18.8809 42.3692 19.331C42.3692 19.7811 42.5554 20.1065 42.8554 20.1065C42.9399 20.1016 43.0208 20.0691 43.0866 20.0136C43.1524 19.9582 43.1997 19.8826 43.2218 19.7976L43.503 19.9273C43.4578 20.0692 43.371 20.1927 43.2549 20.2807C43.1387 20.3686 42.9991 20.4166 42.8554 20.4178C42.3443 20.4178 42.0239 19.9614 42.0239 19.331ZM43.7778 18.4712C43.7785 18.4184 43.7991 18.3679 43.8352 18.3308C43.8713 18.2936 43.92 18.2726 43.9708 18.2724C44.0211 18.2724 44.0694 18.2932 44.1049 18.3303C44.1405 18.3673 44.1605 18.4175 44.1605 18.4698C44.1605 18.5222 44.1405 18.5724 44.1049 18.6094C44.0694 18.6464 44.0211 18.6672 43.9708 18.6672C43.9203 18.6673 43.8719 18.6468 43.8359 18.6101C43.7998 18.5735 43.779 18.5236 43.7778 18.4712ZM43.8181 18.859H44.1238V20.3802H43.8181V18.859ZM44.8573 20.3802L44.371 18.859H44.6956L45.0224 20.0054L45.3522 18.859H45.6764L45.1864 20.3802H44.8543H44.8573ZM45.8814 18.4708C45.8819 18.418 45.9024 18.3675 45.9385 18.3303C45.9745 18.2931 46.0232 18.2721 46.074 18.272C46.111 18.2729 46.1469 18.285 46.1773 18.307C46.2077 18.3289 46.2312 18.3596 46.2449 18.3954C46.2586 18.4311 46.2619 18.4702 46.2544 18.5079C46.2469 18.5456 46.2288 18.5801 46.2026 18.6072C46.1763 18.6343 46.143 18.6527 46.1067 18.6603C46.0705 18.6678 46.0329 18.6641 45.9986 18.6495C45.9644 18.635 45.935 18.6103 45.9142 18.5785C45.8933 18.5467 45.8819 18.5093 45.8814 18.4708ZM45.9217 18.8586H46.2267V20.3798H45.9172V18.8586H45.9217ZM46.6488 18.2783H46.9545V20.3798H46.6488V18.2783ZM49.1675 20.3798L49.0574 19.9638H48.3876L48.2779 20.3798H47.9115L48.5195 18.2783H48.9259L49.5342 20.3798H49.1675ZM48.7238 18.6508L48.46 19.6552H48.9918L48.7238 18.6508ZM50.0506 20.3798L49.5651 18.8586H49.8889L50.2142 20.0069L50.5436 18.8605H50.8686L50.3786 20.3817H50.048L50.0506 20.3798ZM51.0751 18.4704C51.0758 18.4176 51.0964 18.3672 51.1325 18.33C51.1686 18.2928 51.2173 18.2719 51.2681 18.2717C51.3051 18.2726 51.3409 18.2848 51.3713 18.3068C51.4016 18.3287 51.4251 18.3595 51.4387 18.3952C51.4524 18.431 51.4556 18.4701 51.448 18.5077C51.4405 18.5454 51.4224 18.5799 51.3962 18.6069C51.3699 18.634 51.3366 18.6524 51.3003 18.6599C51.2641 18.6674 51.2265 18.6636 51.1923 18.6491C51.158 18.6345 51.1287 18.6098 51.1079 18.5781C51.087 18.5463 51.0756 18.5089 51.0751 18.4704ZM51.1128 18.8582H51.4189V20.3794H51.1128V18.8582ZM52.6043 20.3794V20.2277C52.5583 20.2887 52.4993 20.3377 52.4319 20.3709C52.3645 20.4042 52.2906 20.4206 52.2161 20.419C52.1536 20.4192 52.0918 20.4059 52.0345 20.38C51.9772 20.3541 51.9257 20.3162 51.8832 20.2685C51.8407 20.2209 51.8081 20.1647 51.7876 20.1033C51.767 20.0419 51.7589 19.9768 51.7638 19.912C51.7587 19.8478 51.7668 19.7833 51.7875 19.7225C51.8081 19.6618 51.8409 19.6063 51.8836 19.5597C51.9263 19.513 51.978 19.4763 52.0353 19.4519C52.0926 19.4275 52.1542 19.416 52.2161 19.418C52.2899 19.4152 52.3633 19.4301 52.4307 19.4617C52.498 19.4932 52.5575 19.5406 52.6043 19.6V19.3796C52.6077 19.3399 52.6025 19.2999 52.5891 19.2626C52.5757 19.2252 52.5545 19.1914 52.527 19.1637C52.4995 19.1359 52.4664 19.1149 52.4301 19.1021C52.3937 19.0894 52.3552 19.0852 52.3171 19.0899C52.2477 19.0908 52.1793 19.1067 52.1162 19.1366C52.053 19.1665 51.9966 19.2098 51.9503 19.2636L51.8312 19.0424C51.9768 18.8978 52.1712 18.8185 52.3725 18.8217C52.4421 18.8107 52.5132 18.8163 52.5804 18.838C52.6477 18.8597 52.7093 18.897 52.7607 18.947C52.8121 18.997 52.8519 19.0585 52.8772 19.1269C52.9025 19.1952 52.9125 19.2686 52.9066 19.3416V20.3817H52.6051L52.6043 20.3794ZM52.6043 20.032V19.805C52.5765 19.7538 52.5362 19.7111 52.4875 19.6812C52.4388 19.6514 52.3834 19.6354 52.3269 19.6349C52.2576 19.6395 52.1926 19.6714 52.1451 19.7241C52.0976 19.7768 52.0712 19.8463 52.0712 19.9185C52.0712 19.9907 52.0976 20.0602 52.1451 20.1129C52.1926 20.1656 52.2576 20.1975 52.3269 20.2022C52.3831 20.2015 52.4382 20.1857 52.4868 20.1564C52.5354 20.1271 52.5759 20.0852 52.6043 20.0348M53.3838 20.0414V19.1338H53.192V18.8594H53.3838V18.4442H53.6899V18.8601H53.9349V19.1346H53.6899V19.9759C53.6899 20.0802 53.7238 20.1426 53.803 20.1426C53.8247 20.1433 53.8463 20.1392 53.8663 20.1305C53.8864 20.1218 53.9043 20.1086 53.9191 20.092L53.9925 20.3272C53.9193 20.3921 53.8246 20.4246 53.7287 20.4178C53.6805 20.4237 53.6316 20.4178 53.5859 20.4005C53.5403 20.3833 53.4992 20.3552 53.4658 20.3185C53.4324 20.2818 53.4078 20.2375 53.3938 20.1891C53.3799 20.1407 53.3769 20.0896 53.3853 20.0399M54.2172 18.4716C54.2178 18.4189 54.2383 18.3685 54.2742 18.3313C54.3102 18.2941 54.3587 18.2731 54.4094 18.2728C54.4464 18.2736 54.4824 18.2857 54.5128 18.3076C54.5433 18.3295 54.5668 18.3602 54.5806 18.3959C54.5944 18.4316 54.5977 18.4708 54.5902 18.5085C54.5827 18.5461 54.5648 18.5807 54.5385 18.6078C54.5123 18.635 54.4789 18.6535 54.4427 18.661C54.4064 18.6686 54.3688 18.6649 54.3345 18.6503C54.3002 18.6358 54.2709 18.6111 54.25 18.5793C54.2291 18.5476 54.2177 18.5101 54.2172 18.4716ZM54.2568 18.8594H54.5628V20.3806H54.2568V18.8594ZM54.9111 19.6184C54.9337 19.4922 54.9903 19.3754 55.0743 19.2814C55.1583 19.1875 55.2664 19.1204 55.3857 19.0879C55.5051 19.0555 55.6308 19.0591 55.7483 19.0982C55.8658 19.1374 55.9701 19.2105 56.0491 19.3091C56.1281 19.4076 56.1785 19.5275 56.1944 19.6548C56.2103 19.782 56.1911 19.9113 56.1389 20.0276C56.0868 20.1439 56.0039 20.2423 55.8999 20.3114C55.796 20.3805 55.6753 20.4174 55.5519 20.4178C55.4578 20.4136 55.3655 20.389 55.2811 20.3455C55.1967 20.3021 55.1219 20.2408 55.0615 20.1655C55.0012 20.0902 54.9567 20.0027 54.9308 19.9085C54.9049 19.8143 54.8982 19.7154 54.9111 19.6184ZM55.8738 19.6184C55.8475 19.5578 55.8059 19.5058 55.7535 19.4678C55.7011 19.4297 55.6398 19.4071 55.5761 19.4022C55.5124 19.3973 55.4486 19.4104 55.3914 19.44C55.3342 19.4697 55.2858 19.5148 55.2512 19.5707C55.2166 19.6266 55.1971 19.6911 55.1948 19.7575C55.1925 19.8239 55.2074 19.8898 55.2381 19.9481C55.2687 20.0064 55.3138 20.0551 55.3688 20.089C55.4238 20.1228 55.4865 20.1407 55.5504 20.1406C55.6051 20.1294 55.6571 20.1068 55.7032 20.0743C55.7493 20.0417 55.7886 19.9998 55.8188 19.951C55.849 19.9023 55.8695 19.8477 55.8789 19.7905C55.8884 19.7334 55.8866 19.6748 55.8738 19.6184ZM57.354 20.3806V19.3459C57.3604 19.3145 57.3597 19.282 57.3517 19.251C57.3438 19.22 57.329 19.1913 57.3084 19.1674C57.2878 19.1435 57.2621 19.125 57.2334 19.1133C57.2046 19.1017 57.1736 19.0973 57.1429 19.1005C57.0792 19.105 57.0178 19.127 56.9649 19.1641C56.912 19.2012 56.8694 19.2521 56.8414 19.3118V20.3829H56.5353V18.8617H56.8414V19.0652C56.8896 18.9931 56.9534 18.9337 57.0276 18.8917C57.1018 18.8497 57.1844 18.8263 57.2688 18.8233C57.3221 18.8165 57.3763 18.8226 57.4269 18.8411C57.4776 18.8596 57.5235 18.89 57.5611 18.9299C57.5987 18.9698 57.6269 19.0182 57.6436 19.0713C57.6603 19.1244 57.6651 19.1808 57.6574 19.2361V20.3833H57.3521L57.354 20.3806Z" fill="#58595B"/>
<path fill-rule="evenodd" clip-rule="evenodd" d="M57.051 2.23358C57.3036 2.23306 57.5456 2.12833 57.7241 1.94236C57.9025 1.7564 58.0027 1.5044 58.0027 1.24167C57.9978 0.982267 57.8952 0.735233 57.7171 0.553607C57.539 0.371981 57.2995 0.270245 57.05 0.270245C56.8006 0.270245 56.5611 0.371981 56.383 0.553607C56.2048 0.735233 56.1023 0.982267 56.0973 1.24167C56.0972 1.37197 56.1218 1.50102 56.1696 1.62144C56.2175 1.74185 56.2877 1.85126 56.3763 1.9434C56.4649 2.03554 56.5701 2.1086 56.6859 2.15839C56.8016 2.20819 56.9257 2.23374 57.051 2.23358ZM57.051 0.445389C57.1512 0.444517 57.2506 0.464623 57.3433 0.50451C57.4359 0.544397 57.5199 0.60325 57.5902 0.677571C57.6605 0.751893 57.7158 0.840165 57.7526 0.937138C57.7895 1.03411 57.8073 1.13781 57.8048 1.24206C57.8031 1.3976 57.7572 1.54912 57.6728 1.67753C57.5884 1.80594 57.4693 1.90549 57.3306 1.96362C57.1919 2.02175 57.0398 2.03586 56.8934 2.00417C56.747 1.97248 56.6128 1.89641 56.5079 1.78555C56.403 1.67469 56.332 1.53401 56.3039 1.38124C56.2758 1.22847 56.2917 1.07046 56.3498 0.927124C56.4079 0.783788 56.5055 0.661548 56.6303 0.575817C56.755 0.490086 56.9014 0.444702 57.051 0.445389ZM56.8659 1.75801V1.34752H57.1019L57.3005 1.75801H57.5048L57.282 1.31106C57.3452 1.28 57.3964 1.22742 57.4269 1.16202C57.4575 1.09662 57.4657 1.02233 57.4501 0.951436C57.4345 0.880544 57.3962 0.817307 57.3413 0.772195C57.2865 0.727082 57.2185 0.702799 57.1486 0.703366H56.8346C56.8149 0.700278 56.7947 0.701832 56.7756 0.707915C56.7565 0.713999 56.7389 0.724456 56.7242 0.73852C56.7095 0.752583 56.698 0.769896 56.6905 0.789186C56.6831 0.808477 56.6799 0.829256 56.6812 0.849997V1.75762H56.864L56.8659 1.75801ZM56.8689 0.871167H57.1328C57.1519 0.869973 57.171 0.873068 57.1889 0.880241C57.2067 0.887414 57.2229 0.898499 57.2362 0.912742C57.2496 0.926985 57.2599 0.944053 57.2664 0.962789C57.2728 0.981525 57.2753 1.00149 57.2737 1.02133C57.2747 1.04219 57.2715 1.06303 57.2642 1.08251C57.257 1.102 57.2459 1.11969 57.2317 1.13446C57.2175 1.14923 57.2005 1.16075 57.1818 1.16827C57.1631 1.17579 57.143 1.17916 57.123 1.17815H56.8682V0.870775L56.8689 0.871167ZM21.2284 2.2128C23.2219 2.2128 23.4715 4.34836 23.4715 4.34836L25.8461 3.7689C25.8318 3.70734 25.4206 0.0149052 21.2287 0.0149052C18.6343 0.0149052 16.2156 1.66156 16.2156 5.87427C16.2156 10.0544 18.7655 11.6568 21.4048 11.6568C22.6252 11.6725 23.8299 11.3683 24.9076 10.7723C25.4794 10.4214 25.8016 10.0862 25.8016 9.36911V6.79169C25.8084 6.63973 25.7831 6.48807 25.7276 6.34734C25.6721 6.20661 25.5876 6.08021 25.4802 5.977C25.3727 5.8738 25.2449 5.79628 25.1056 5.74989C24.9663 5.70349 24.819 5.68934 24.6739 5.70843H21.4168V7.61659H23.4522V9.09584C22.85 9.45039 22.1653 9.62501 21.4737 9.60042C20.1402 9.60042 18.7474 8.76063 18.7474 5.87584C18.7474 3.05299 19.9641 2.21476 21.225 2.21476M31.779 0.00157499C30.7816 0.00157499 30.1808 0.444605 29.8879 1.35929L26.6648 11.5047H29.214C29.4069 11.4896 29.5886 11.4042 29.727 11.2635L32.7952 8.10784C32.8589 8.04158 32.8416 8.01022 32.7684 8.01022H32.3538C32.1838 8.00869 32.0166 8.05502 31.8698 8.14431L29.805 9.3793L31.765 2.48529C31.765 2.48529 34.0948 10.8315 34.2852 11.5027H36.9094L33.7285 1.34086C33.4646 0.48734 32.7914 -0.00195312 31.7797 -0.00195312M42.3187 2.18026C44.3119 2.18026 44.5765 4.46912 44.5765 4.46912L46.9511 3.95003C46.9511 3.95003 46.5999 0.0172578 42.3198 0.0172578C39.7254 0.0172578 37.3067 1.6204 37.3067 5.83192C37.3067 10.0113 39.7103 11.6736 42.3051 11.6736C46.497 11.6736 46.9519 7.8287 46.9519 7.8287L44.5773 7.29432C44.5773 7.29432 44.3854 9.50633 42.3488 9.50633C41.0888 9.50633 39.857 8.66692 39.857 5.82996C39.857 3.00712 41.0586 2.18379 42.3194 2.18379M52.6692 0.00157499C51.6718 0.00157499 51.0702 0.444605 50.7774 1.35929L47.5531 11.5047H50.1023C50.2953 11.4897 50.4769 11.4043 50.6153 11.2635L53.6842 8.10784C53.7476 8.04158 53.7298 8.01022 53.6567 8.01022H53.2421C53.0721 8.00869 52.9049 8.05502 52.7581 8.14431L50.6933 9.3793L52.6533 2.48529C52.6533 2.48529 54.9843 10.8315 55.1746 11.5027H57.7988L54.6179 1.34086C54.354 0.48734 53.6797 -0.00195312 52.6688 -0.00195312" fill="#274479"/>
<path fill-rule="evenodd" clip-rule="evenodd" d="M15.4137 11.536C15.4326 11.5341 15.4501 11.5246 15.4624 11.5096C15.4747 11.4945 15.4809 11.475 15.4796 11.4553C15.4808 11.4399 15.478 11.4244 15.4713 11.4106C15.4647 11.3968 15.4545 11.3851 15.4419 11.3768C14.7674 11.1454 14.1717 10.716 13.7265 10.1403C13.2813 9.56471 13.0056 8.86742 12.9327 8.13254L12.3296 3.66303C12.0492 1.58707 10.5796 0.171333 8.86604 0.137616H0.0639804C0.0555574 0.1373 0.0471586 0.138748 0.0392835 0.141872C0.0314085 0.144996 0.0242227 0.149735 0.0181411 0.155805C0.0120595 0.161875 0.00721526 0.169153 0.00388891 0.177208C0.000562558 0.185264 -0.00117338 0.193931 -0.00121841 0.202698C-0.00371296 0.218234 -0.00141118 0.234193 0.00536129 0.248282C0.0121338 0.262371 0.0230191 0.273864 0.0364653 0.281111C0.711697 0.515448 1.30762 0.947371 1.75281 1.5251C2.198 2.10283 2.47355 2.80185 2.54644 3.53836L3.14953 8.00786C3.42996 10.076 4.89848 11.4996 6.612 11.5407L15.4137 11.536ZM11.6595 9.62512H10.0907C9.91642 9.64177 9.74124 9.60598 9.58598 9.522L8.51474 8.92921L9.13366 8.58811L11.6674 9.59258C11.7047 9.60983 11.7047 9.62512 11.6595 9.62512ZM10.4156 4.91371C10.4117 4.91868 10.4062 4.92196 10.4002 4.9229C10.3941 4.92385 10.3879 4.92239 10.3828 4.91881C9.88757 4.62499 9.36483 4.38446 8.82269 4.20094C8.75559 4.1782 8.66024 4.14449 8.57204 4.12253C8.53434 5.96757 8.36736 7.40173 8.19511 7.40369C8.02285 7.40565 7.85587 5.96757 7.81818 4.12253C7.7296 4.14409 7.63461 4.1782 7.56752 4.20094C7.02526 4.38446 6.50239 4.62499 6.00702 4.91881C6.00203 4.92245 5.99587 4.92396 5.98984 4.92301C5.9838 4.92206 5.97835 4.91873 5.97461 4.91371C5.97202 4.90989 5.97046 4.90543 5.97009 4.90077C5.95184 4.80584 5.95603 4.70772 5.98229 4.61484C6.00856 4.52196 6.0561 4.43711 6.12086 4.36757C6.27708 4.21886 6.44659 4.086 6.62708 3.9708C6.84476 3.82189 7.07324 3.69081 7.31045 3.57874C7.37302 3.54816 7.4518 3.51091 7.51361 3.48386C7.11989 3.25603 6.706 3.06815 6.27767 2.92282C6.27521 2.92218 6.27291 2.92104 6.27088 2.91947C6.26885 2.9179 6.26714 2.91593 6.26584 2.91368C6.26455 2.91142 6.2637 2.90892 6.26333 2.90631C6.26297 2.90371 6.26309 2.90106 6.26371 2.89851C6.2647 2.89479 6.26682 2.89149 6.26975 2.8891C6.31918 2.83039 6.3809 2.78427 6.45018 2.75429C6.51945 2.72431 6.59442 2.71128 6.6693 2.7162C6.80924 2.73523 6.94777 2.76418 7.08392 2.80285C7.23469 2.84206 7.38546 2.88518 7.53171 2.93537C7.61652 2.96438 7.7002 2.99535 7.7835 3.02946L7.82495 3.04593C7.87622 2.54762 8.02322 2.18339 8.19586 2.18339C8.36849 2.18339 8.5155 2.54566 8.56676 3.04593L8.60821 3.02946C8.69114 2.99535 8.7752 2.96438 8.85963 2.93537C9.00739 2.88518 9.15678 2.84101 9.3078 2.80285C9.44395 2.76418 9.58248 2.73523 9.72243 2.7162C9.79731 2.71128 9.87226 2.72431 9.94153 2.75429C10.0108 2.78427 10.0725 2.83039 10.122 2.8891C10.1249 2.89149 10.127 2.89479 10.128 2.89851C10.1286 2.90106 10.1288 2.90371 10.1284 2.90631C10.128 2.90892 10.1272 2.91142 10.1259 2.91368C10.1246 2.91593 10.1229 2.9179 10.1208 2.91947C10.1188 2.92104 10.1165 2.92218 10.1141 2.92282C9.68572 3.06815 9.27182 3.25603 8.8781 3.48386C8.93954 3.51052 9.01832 3.54777 9.08126 3.57874C9.31848 3.69081 9.54696 3.82189 9.76464 3.9708C9.94513 4.086 10.1146 4.21886 10.2709 4.36757C10.3355 4.43716 10.383 4.52202 10.4093 4.61488C10.4355 4.70774 10.4398 4.80584 10.4216 4.90077C10.4214 4.90539 10.4199 4.90985 10.4175 4.91371H10.4156ZM6.24901 7.63423L6.65082 7.63188C6.70724 7.63065 6.76341 7.63995 6.81667 7.65932L7.77633 8.05138L7.27803 8.24741L6.24186 7.67304C6.20643 7.6503 6.20642 7.6354 6.2509 7.63423H6.24901ZM9.69227 7.65971L10.0929 7.66285C10.1382 7.66285 10.1382 7.67931 10.1009 7.70205L6.80537 9.52318C6.64955 9.60671 6.47412 9.64247 6.29952 9.62629H4.73151C4.68665 9.62629 4.68664 9.611 4.72396 9.59493L9.52642 7.6899C9.57995 7.66874 9.6369 7.6585 9.69415 7.65971H9.69227Z" fill="#0075C9"/>
</g>
<defs>
<clipPath id="clip0_367_692">
<rect width="58" height="21" fill="white"/>
</clipPath>
</defs>
</svg>
