<svg width="354" height="62" viewBox="0 0 354 62" fill="none" xmlns="http://www.w3.org/2000/svg">
<path d="M218.332 48.848C218.332 42.08 222.508 37.616 229.6 37.616C232.768 37.616 234.604 38.264 235.972 38.804V43.268C233.884 41.936 231.868 41.576 229.672 41.576C226.288 41.576 223.624 43.772 223.624 48.272C223.624 53.132 226.18 55.436 230.032 55.436C232.264 55.436 233.812 55.076 235.972 53.816V57.956C234.82 58.676 232.156 59.396 229.384 59.396C222.76 59.396 218.332 55.94 218.332 48.848ZM245.564 38.012H250.712L257.768 59H252.404L250.964 53.96H243.8L242.036 59H237.284L245.564 38.012ZM245.168 50.108H249.884L249.344 48.236L247.904 43.052H247.724L245.852 48.236L245.168 50.108ZM260.828 38.012H269.144C273.716 38.012 276.848 40.46 276.848 44.996C276.848 47.408 275.66 49.676 273.212 51.008L278.324 59H272.636L268.964 52.196C268.568 52.232 268.136 52.232 267.74 52.232H265.904V59H260.828V38.012ZM265.904 41.684V48.524H266.66C269.792 48.524 271.592 47.876 271.592 45.068C271.592 42.8 269.936 41.72 266.876 41.684H265.904ZM281.324 38.012H295.508V41.864H286.4V46.508H293.852V50.18H286.4V55.148H295.76V59H281.324V38.012ZM299.535 38.012H313.719V41.864H304.611V46.508H312.063V50.18H304.611V55.148H313.971V59H299.535V38.012ZM317.746 38.012H326.062C330.634 38.012 333.766 40.46 333.766 44.996C333.766 47.408 332.578 49.676 330.13 51.008L335.242 59H329.554L325.882 52.196C325.486 52.232 325.054 52.232 324.658 52.232H322.822V59H317.746V38.012ZM322.822 41.684V48.524H323.578C326.71 48.524 328.51 47.876 328.51 45.068C328.51 42.8 326.854 41.72 323.794 41.684H322.822ZM337.486 53.96C339.142 54.824 342.13 55.544 344.434 55.544C346.378 55.544 347.746 54.716 347.746 53.348C347.746 51.656 345.226 51.224 342.454 50.252C339.574 49.28 337.27 47.876 337.27 44.168C337.27 40.028 340.87 37.616 345.01 37.616C347.746 37.616 350.194 38.228 351.598 38.948V43.16C350.23 42.296 347.71 41.612 345.478 41.612C343.714 41.612 341.986 42.26 341.986 43.592C341.986 44.96 343.174 45.536 345.694 46.328C348.79 47.3 352.39 48.596 352.39 52.844C352.39 57.416 348.538 59.396 343.966 59.396C341.734 59.396 339.574 58.928 337.486 58.1V53.96Z" fill="#0175CA"/>
<g clip-path="url(#clip0_9_712)">
<path fill-rule="evenodd" clip-rule="evenodd" d="M101.506 42.109C101.601 42.109 101.694 42.0808 101.773 42.0281C101.852 41.9753 101.913 41.9004 101.949 41.8127C101.986 41.725 101.995 41.6284 101.977 41.5353C101.958 41.4422 101.913 41.3567 101.845 41.2896C101.778 41.2224 101.693 41.1767 101.6 41.1582C101.507 41.1397 101.41 41.1492 101.322 41.1855C101.235 41.2219 101.16 41.2834 101.107 41.3623C101.054 41.4412 101.026 41.5341 101.026 41.629C101.026 41.6921 101.038 41.7545 101.062 41.8128C101.086 41.8711 101.122 41.9241 101.166 41.9687C101.211 42.0133 101.264 42.0486 101.322 42.0727C101.38 42.0968 101.443 42.1091 101.506 42.109ZM103.051 42.109C103.146 42.109 103.239 42.0808 103.318 42.0281C103.397 41.9753 103.458 41.9004 103.494 41.8127C103.531 41.725 103.54 41.6284 103.522 41.5353C103.503 41.4422 103.458 41.3567 103.39 41.2896C103.323 41.2224 103.238 41.1767 103.145 41.1582C103.052 41.1397 102.955 41.1492 102.867 41.1855C102.78 41.2219 102.705 41.2834 102.652 41.3623C102.599 41.4412 102.571 41.5341 102.571 41.629C102.571 41.7563 102.622 41.8784 102.712 41.9684C102.802 42.0584 102.924 42.109 103.051 42.109ZM129.077 42.109C129.172 42.1092 129.265 42.0812 129.344 42.0286C129.423 41.976 129.485 41.9011 129.521 41.8134C129.558 41.7257 129.567 41.6291 129.549 41.536C129.531 41.4428 129.485 41.3572 129.418 41.2899C129.351 41.2227 129.265 41.1769 129.172 41.1583C129.079 41.1397 128.982 41.1491 128.895 41.1854C128.807 41.2217 128.732 41.2832 128.679 41.3622C128.626 41.4412 128.598 41.534 128.598 41.629C128.598 41.7561 128.648 41.8781 128.738 41.968C128.828 42.058 128.95 42.1087 129.077 42.109ZM130.622 42.109C130.717 42.109 130.81 42.0808 130.889 42.0281C130.968 41.9753 131.029 41.9004 131.065 41.8127C131.102 41.725 131.111 41.6284 131.093 41.5353C131.074 41.4422 131.029 41.3567 130.961 41.2896C130.894 41.2224 130.809 41.1767 130.716 41.1582C130.623 41.1397 130.526 41.1492 130.438 41.1855C130.351 41.2219 130.276 41.2834 130.223 41.3623C130.17 41.4412 130.142 41.5341 130.142 41.629C130.142 41.7558 130.192 41.8774 130.282 41.9673C130.371 42.0573 130.492 42.1082 130.619 42.109H130.622ZM140.092 43.255L140.009 42.644C139.671 42.702 138.894 42.937 138.82 42.405C138.802 42.2715 138.835 42.136 138.913 42.0263C138.992 41.9166 139.109 41.841 139.241 41.815C139.461 41.7905 139.683 41.8286 139.882 41.925L140.082 41.337C139.87 41.2495 139.641 41.2121 139.413 41.2277C139.185 41.2433 138.963 41.3115 138.765 41.427C138.557 41.575 138.41 41.7946 138.353 42.0438C138.297 42.2931 138.334 42.5545 138.458 42.778L137.77 42.8V43.264C138.224 43.2827 138.678 43.296 139.133 43.304C139.207 43.303 139.773 43.287 140.092 43.255ZM82.271 48.244C82.1761 48.244 82.0833 48.2721 82.0044 48.3249C81.9254 48.3776 81.8639 48.4526 81.8276 48.5403C81.7912 48.628 81.7817 48.7245 81.8003 48.8176C81.8188 48.9107 81.8645 48.9963 81.9316 49.0634C81.9987 49.1305 82.0843 49.1762 82.1774 49.1948C82.2705 49.2133 82.367 49.2038 82.4547 49.1674C82.5424 49.1311 82.6174 49.0696 82.6701 48.9907C82.7229 48.9117 82.751 48.8189 82.751 48.724C82.751 48.6609 82.7386 48.5985 82.7145 48.5403C82.6904 48.4821 82.655 48.4291 82.6104 48.3846C82.5659 48.34 82.5129 48.3046 82.4547 48.2805C82.3965 48.2564 82.3341 48.244 82.271 48.244ZM83.816 48.244C83.7211 48.244 83.6283 48.2721 83.5493 48.3249C83.4704 48.3776 83.4089 48.4526 83.3726 48.5403C83.3362 48.628 83.3267 48.7245 83.3452 48.8176C83.3638 48.9107 83.4095 48.9963 83.4766 49.0634C83.5438 49.1305 83.6293 49.1762 83.7224 49.1948C83.8155 49.2133 83.912 49.2038 83.9997 49.1674C84.0874 49.1311 84.1624 49.0696 84.2151 48.9907C84.2679 48.9117 84.296 48.8189 84.296 48.724C84.296 48.5972 84.2459 48.4756 84.1565 48.3856C84.0671 48.2957 83.9458 48.2448 83.819 48.244H83.816ZM140.896 48.244C140.801 48.244 140.708 48.2721 140.629 48.3249C140.55 48.3776 140.489 48.4526 140.453 48.5403C140.416 48.628 140.407 48.7245 140.425 48.8176C140.444 48.9107 140.489 48.9963 140.557 49.0634C140.624 49.1305 140.709 49.1762 140.802 49.1948C140.895 49.2133 140.992 49.2038 141.08 49.1674C141.167 49.1311 141.242 49.0696 141.295 48.9907C141.348 48.9117 141.376 48.8189 141.376 48.724C141.376 48.6609 141.364 48.5985 141.339 48.5403C141.315 48.4821 141.28 48.4291 141.235 48.3846C141.191 48.34 141.138 48.3046 141.08 48.2805C141.021 48.2564 140.959 48.244 140.896 48.244ZM142.441 48.244C142.346 48.2438 142.253 48.2718 142.174 48.3244C142.095 48.377 142.033 48.4519 141.997 48.5396C141.96 48.6273 141.951 48.7238 141.969 48.817C141.988 48.9102 142.033 48.9958 142.1 49.063C142.167 49.1303 142.253 49.1761 142.346 49.1947C142.439 49.2133 142.536 49.2038 142.623 49.1675C142.711 49.1312 142.786 49.0697 142.839 48.9908C142.892 48.9118 142.92 48.819 142.92 48.724C142.92 48.5969 142.87 48.4749 142.78 48.3849C142.69 48.2949 142.568 48.2443 142.441 48.244ZM45.972 49.389C45.8771 49.389 45.7843 49.4171 45.7054 49.4699C45.6264 49.5226 45.5649 49.5976 45.5286 49.6853C45.4922 49.773 45.4827 49.8695 45.5013 49.9626C45.5198 50.0557 45.5655 50.1413 45.6326 50.2084C45.6997 50.2755 45.7853 50.3212 45.8784 50.3398C45.9715 50.3583 46.068 50.3488 46.1557 50.3124C46.2434 50.2761 46.3184 50.2146 46.3711 50.1357C46.4239 50.0567 46.452 49.9639 46.452 49.869C46.4522 49.8059 46.4398 49.7433 46.4158 49.685C46.3917 49.6266 46.3564 49.5736 46.3118 49.5289C46.2672 49.4843 46.2142 49.4488 46.1559 49.4246C46.0976 49.4004 46.0351 49.389 45.972 49.389ZM47.517 49.389C47.4221 49.3888 47.3292 49.4168 47.2501 49.4694C47.171 49.522 47.1093 49.5969 47.0728 49.6846C47.0364 49.7723 47.0267 49.8688 47.0451 49.962C47.0635 50.0552 47.1092 50.1408 47.1763 50.208C47.2434 50.2753 47.3289 50.3211 47.422 50.3397C47.5152 50.3583 47.6117 50.3488 47.6995 50.3125C47.7873 50.2762 47.8623 50.2147 47.9151 50.1358C47.9679 50.0568 47.996 49.964 47.996 49.869C47.9963 49.742 47.9462 49.6201 47.8568 49.53C47.7674 49.4398 47.646 49.3888 47.519 49.388L47.517 49.389ZM73.098 44.002C73.193 44.002 73.2857 43.9738 73.3647 43.9211C73.4436 43.8683 73.5051 43.7934 73.5415 43.7057C73.5778 43.618 73.5873 43.5215 73.5688 43.4283C73.5503 43.3352 73.5046 43.2497 73.4374 43.1826C73.3703 43.1154 73.2848 43.0697 73.1917 43.0512C73.0986 43.0327 73.002 43.0422 72.9143 43.0785C72.8266 43.1149 72.7517 43.1764 72.6989 43.2553C72.6462 43.3342 72.618 43.4271 72.618 43.522C72.6183 43.6491 72.669 43.7709 72.759 43.8607C72.849 43.9505 72.9709 44.002 73.098 44.002ZM51.21 43.07C51.305 43.07 51.3977 43.0418 51.4767 42.9891C51.5556 42.9363 51.6171 42.8614 51.6535 42.7737C51.6898 42.686 51.6993 42.5895 51.6808 42.4963C51.6623 42.4032 51.6166 42.3177 51.5494 42.2506C51.4823 42.1834 51.3968 42.1377 51.3037 42.1192C51.2106 42.1007 51.114 42.1102 51.0263 42.1465C50.9386 42.1829 50.8637 42.2444 50.8109 42.3233C50.7582 42.4022 50.73 42.4951 50.73 42.59C50.73 42.653 50.7424 42.7153 50.7666 42.7735C50.7907 42.8317 50.8261 42.8846 50.8707 42.929C50.9153 42.9735 50.9682 43.0088 51.0264 43.0328C51.0846 43.0568 51.147 43.0701 51.21 43.07ZM152.073 41.358V47.252H152.9V41.357L152.073 41.358ZM124.166 47.252H124.993V41.357H124.166V47.252ZM76.587 47.252H77.419V41.357H76.591V47.251L76.587 47.252ZM149.902 46.044C149.902 46.1935 149.842 46.3368 149.737 46.4425C149.631 46.5482 149.488 46.6077 149.338 46.608H147.032C147.047 46.591 147.062 46.575 147.075 46.557C147.206 46.3801 147.292 46.174 147.326 45.9564C147.36 45.7388 147.34 45.5163 147.269 45.308C147.169 44.938 146.849 43.808 146.038 43.793H146.019C145.069 43.793 144.486 45.383 144.378 45.704C144.28 45.9979 144.203 46.2988 144.149 46.604C143.792 46.613 142.102 46.604 142.102 46.604C142.18 46.4276 142.22 46.2368 142.219 46.044V44.024H141.391V46.044C141.391 46.1936 141.332 46.337 141.226 46.4428C141.12 46.5486 140.977 46.608 140.827 46.608H140.327C140.178 46.6077 140.034 46.5482 139.928 46.4425C139.823 46.3368 139.763 46.1935 139.763 46.044V44.024H138.936V46.044C138.936 46.1935 138.876 46.3368 138.771 46.4425C138.665 46.5482 138.522 46.6077 138.372 46.608H131.319C131.17 46.6077 131.026 46.5482 130.921 46.4425C130.815 46.3368 130.755 46.1935 130.755 46.044V42.986H129.929V43.386C129.544 43.5009 129.167 43.6422 128.801 43.809C128.423 43.9262 128.078 44.1292 127.792 44.4021C127.505 44.675 127.286 45.0103 127.151 45.382C127.118 45.5228 127.121 45.6695 127.159 45.8091C127.196 45.9487 127.268 46.0768 127.367 46.182C127.61 46.3728 127.888 46.5135 128.185 46.5957C128.483 46.6779 128.794 46.7001 129.1 46.661C129.414 46.6587 129.728 46.637 130.04 46.596C130.147 46.8467 130.326 47.0606 130.553 47.2109C130.781 47.3613 131.047 47.4416 131.32 47.442H138.368C138.628 47.1839 138.979 47.039 139.346 47.039C139.712 47.039 140.063 47.1839 140.323 47.442H140.823C141.179 47.4418 141.52 47.305 141.778 47.06V47.434C141.778 47.434 143.76 47.443 144.072 47.434C144.039 47.8296 144.131 48.2255 144.334 48.5663C144.538 48.9071 144.843 49.1755 145.207 49.334C145.442 49.4285 145.692 49.4764 145.945 49.475C146.253 49.4909 146.559 49.4231 146.831 49.2787C147.102 49.1342 147.33 48.9187 147.489 48.655C147.583 48.4557 147.616 48.2333 147.585 48.0153C147.554 47.7972 147.46 47.593 147.314 47.428H149.333C149.702 47.4277 150.056 47.281 150.317 47.02C150.578 46.759 150.725 46.4051 150.725 46.036V41.357H149.897V46.044H149.902ZM127.969 45.607C127.959 45.597 127.953 45.591 127.962 45.544C128.062 45.044 129.07 44.531 129.929 44.244V45.764C129.274 45.899 128.594 45.8452 127.969 45.607ZM145.161 45.968C145.275 45.4313 145.578 44.9533 146.014 44.621C146.28 44.8535 146.443 45.181 146.47 45.533C146.506 45.6171 146.52 45.709 146.511 45.8C146.501 45.891 146.469 45.9781 146.416 46.053C146.014 46.3806 145.51 46.5575 144.991 46.553C145.038 46.3546 145.094 46.1587 145.161 45.966V45.968ZM146.749 48.302C146.601 48.4717 146.402 48.5899 146.182 48.6393C145.962 48.6887 145.732 48.6669 145.525 48.577C145.31 48.4711 145.134 48.301 145.02 48.0903C144.906 47.8796 144.861 47.6387 144.89 47.401C145.329 47.3706 145.763 47.286 146.181 47.149L146.019 47.435C146.216 47.485 146.392 47.5953 146.523 47.7504C146.654 47.9055 146.733 48.0977 146.749 48.3V48.302ZM66.819 47.251H67.647V41.357H66.819V47.251ZM64.645 46.044C64.645 46.1934 64.5857 46.3367 64.4802 46.4424C64.3746 46.5482 64.2314 46.6077 64.082 46.608H62.451C62.465 46.579 62.479 46.55 62.491 46.519C62.6937 45.9108 62.6499 45.2473 62.369 44.671C62.2592 44.3945 62.0728 44.155 61.8318 43.9805C61.5908 43.8061 61.305 43.7039 61.008 43.686H61C60.6974 43.7039 60.4061 43.8073 60.16 43.9844C59.9139 44.1614 59.7232 44.4047 59.61 44.686C59.4784 44.964 59.3658 45.2507 59.273 45.544C59.017 46.298 58.912 46.611 58.084 46.611H57.284C57.1891 45.9747 56.9475 45.3692 56.5783 44.8423C56.2092 44.3154 55.7226 43.8815 55.157 43.575L54.776 44.31C55.2056 44.5486 55.5781 44.8779 55.8673 45.2751C56.1566 45.6724 56.3558 46.1279 56.451 46.61H53.863V47.438H58.083C58.5406 47.4669 58.9933 47.3298 59.358 47.052C59.833 47.3212 60.3723 47.4557 60.918 47.441C61.1804 47.4482 61.4419 47.4096 61.691 47.327C61.7374 47.3091 61.7828 47.2887 61.827 47.266V47.441H64.081C64.45 47.4405 64.8036 47.2936 65.0644 47.0326C65.3252 46.7717 65.4718 46.4179 65.472 46.049V41.357H64.644V46.044H64.645ZM61.722 46.215C61.6949 46.2913 61.6515 46.3608 61.5949 46.4186C61.5383 46.4765 61.4697 46.5213 61.394 46.55C60.8713 46.6595 60.3272 46.5982 59.842 46.375C59.9232 46.1884 59.995 45.9978 60.057 45.804C60.1384 45.5457 60.2369 45.2931 60.352 45.048C60.4011 44.9084 60.4874 44.7848 60.6017 44.6907C60.7159 44.5966 60.8536 44.5355 61 44.514C61.1411 44.5334 61.274 44.5919 61.3836 44.6829C61.4931 44.774 61.5751 44.8938 61.62 45.029C61.8008 45.3971 61.8362 45.8199 61.719 46.213L61.722 46.215ZM110.247 43.689H110.24C109.937 43.7069 109.646 43.8103 109.4 43.9874C109.154 44.1644 108.963 44.4077 108.85 44.689C108.718 44.9667 108.605 45.253 108.512 45.546C108.257 46.3 108.151 46.612 107.324 46.612H103.95C103.801 46.6117 103.657 46.5522 103.552 46.4465C103.446 46.3408 103.386 46.1975 103.386 46.048V42.986H102.558V43.386C102.173 43.5011 101.797 43.6424 101.431 43.809C101.053 43.9262 100.708 44.1292 100.422 44.4021C100.135 44.675 99.9162 45.0103 99.781 45.382C99.748 45.5228 99.7505 45.6696 99.7882 45.8092C99.8259 45.9488 99.8977 46.0769 99.997 46.182C100.239 46.3728 100.517 46.5134 100.815 46.5957C101.112 46.6779 101.423 46.7001 101.729 46.661C102.044 46.6587 102.358 46.637 102.67 46.596C102.777 46.8467 102.956 47.0606 103.183 47.2109C103.411 47.3613 103.677 47.4416 103.95 47.442H107.319C107.777 47.4714 108.23 47.3339 108.595 47.055C109.31 47.4394 110.144 47.5381 110.928 47.331C111.11 47.2617 111.276 47.1546 111.414 47.0167C111.552 46.8788 111.659 46.7133 111.728 46.531C111.931 45.9229 111.888 45.2594 111.607 44.683C111.499 44.4046 111.313 44.1629 111.072 43.9864C110.832 43.8099 110.545 43.706 110.247 43.687V43.689ZM100.598 45.608C100.589 45.598 100.582 45.592 100.592 45.545C100.692 45.045 101.699 44.532 102.558 44.245V45.765C101.903 45.8996 101.223 45.8444 100.598 45.606V45.608ZM110.961 46.217C110.934 46.2935 110.891 46.3633 110.834 46.4213C110.778 46.4794 110.709 46.5243 110.633 46.553C110.11 46.6627 109.566 46.6017 109.081 46.379C109.162 46.1924 109.234 46.0018 109.296 45.808C109.379 45.5492 109.479 45.2963 109.596 45.051C109.645 44.9113 109.731 44.7877 109.846 44.6936C109.96 44.5995 110.098 44.5384 110.244 44.517C110.385 44.5364 110.518 44.5949 110.628 44.6859C110.737 44.777 110.819 44.8968 110.864 45.032C111.044 45.4001 111.079 45.8225 110.961 46.215V46.217ZM96.483 46.044C96.4828 46.1935 96.4232 46.3368 96.3175 46.4425C96.2118 46.5482 96.0685 46.6077 95.919 46.608H95.413C95.2635 46.6077 95.1202 46.5482 95.0145 46.4425C94.9088 46.3368 94.8493 46.1935 94.849 46.044V41.357H94.019V46.044C94.0187 46.1935 93.9593 46.3368 93.8535 46.4425C93.7478 46.5482 93.6045 46.6077 93.455 46.608H92.269C92.3033 46.1668 92.245 45.7234 92.0977 45.3061C91.9505 44.8888 91.7176 44.5069 91.414 44.185C90.623 43.532 89.554 43.944 88.791 44.416C88.3463 44.6985 87.9332 45.0281 87.559 45.399V41.359H86.731V46.608H83.331C83.4102 46.4305 83.4511 46.2383 83.451 46.044V44.024H82.624V46.044C82.6238 46.1935 82.5642 46.3368 82.4585 46.4425C82.3528 46.5482 82.2095 46.6077 82.06 46.608H80.319C80.1695 46.6077 80.0262 46.5482 79.9205 46.4425C79.8148 46.3368 79.7553 46.1935 79.755 46.044V44.024H78.927V47.244C78.927 47.5491 78.8059 47.8417 78.5903 48.0575C78.3746 48.2733 78.0821 48.3947 77.777 48.395V49.224C78.2892 49.2233 78.7811 49.0243 79.1497 48.6688C79.5183 48.3132 79.7349 47.8288 79.754 47.317C79.9318 47.3962 80.1244 47.4371 80.319 47.437H82.066C82.3353 47.4372 82.5988 47.3587 82.824 47.211V47.437H93.458C93.7179 47.1789 94.0693 47.034 94.4355 47.034C94.8018 47.034 95.1532 47.1789 95.413 47.437H95.919C96.288 47.4365 96.6416 47.2896 96.9024 47.0286C97.1632 46.7677 97.3098 46.4139 97.31 46.045V41.357H96.483V46.044ZM87.562 46.306C87.9067 45.9719 88.2798 45.6684 88.677 45.399C89.116 45.0605 89.6234 44.8216 90.164 44.699C90.3902 44.6468 90.6278 44.6852 90.826 44.806C90.9869 44.9334 91.1091 45.1031 91.179 45.296C91.3365 45.7166 91.421 46.161 91.429 46.61H87.562V46.31V46.306ZM52.052 46.044C52.0518 46.1935 51.9922 46.3368 51.8865 46.4425C51.7808 46.5482 51.6375 46.6077 51.488 46.608H51.119C50.966 46.6099 50.8183 46.5521 50.7074 46.4467C50.5964 46.3414 50.531 46.1969 50.525 46.044V44.944C50.5296 44.7856 50.4978 44.6282 50.4321 44.484C50.3664 44.3398 50.2685 44.2125 50.146 44.112C49.9893 43.9985 49.8091 43.9217 49.6187 43.8871C49.4284 43.8524 49.2327 43.861 49.046 43.912C48.6856 43.9827 48.3592 44.1719 48.1188 44.4495C47.8783 44.7271 47.7376 45.0772 47.719 45.444V47.344C47.7057 47.4459 47.6626 47.5415 47.5952 47.6191C47.5278 47.6966 47.439 47.7526 47.34 47.78C46.9937 47.9032 46.6206 47.9311 46.2598 47.8608C45.8989 47.7904 45.5637 47.6244 45.289 47.38C45.0147 47.0485 44.8477 46.6414 44.8102 46.2127C44.7727 45.784 44.8664 45.3541 45.079 44.98L44.307 44.68C43.602 46.521 44.26 47.533 44.714 47.972C45.2445 48.4629 45.9433 48.7311 46.666 48.721C47.0085 48.7252 47.3484 48.6613 47.666 48.533C47.9183 48.4474 48.1381 48.2864 48.2959 48.0718C48.4536 47.8572 48.5417 47.5993 48.548 47.333V45.444C48.5649 45.2631 48.6414 45.093 48.7656 44.9605C48.8898 44.8279 49.0547 44.7405 49.234 44.712C49.2999 44.6903 49.3695 44.6828 49.4384 44.6898C49.5073 44.6969 49.574 44.7184 49.634 44.753C49.6595 44.7757 49.679 44.8045 49.6906 44.8366C49.7023 44.8687 49.7059 44.9032 49.701 44.937V46.037C49.7099 46.4086 49.8635 46.762 50.1291 47.022C50.3947 47.282 50.7513 47.428 51.123 47.429H51.491C51.8601 47.4287 52.214 47.282 52.475 47.021C52.736 46.76 52.8828 46.4061 52.883 46.037V44.017H52.055V46.044H52.052ZM74.509 47.344C74.4959 47.4458 74.453 47.5414 74.3857 47.619C74.3185 47.6965 74.2299 47.7525 74.131 47.78C73.7845 47.9033 73.4113 47.9313 73.0503 47.8609C72.6893 47.7905 72.3538 47.6244 72.079 47.38C71.805 47.0483 71.6382 46.6411 71.6009 46.2125C71.5636 45.7839 71.6574 45.3541 71.87 44.98L71.097 44.68C70.397 46.521 71.05 47.533 71.505 47.972C72.0351 48.4628 72.7337 48.731 73.456 48.721C73.7985 48.7252 74.1384 48.6613 74.456 48.533C74.7085 48.4476 74.9285 48.2867 75.0865 48.072C75.2444 47.8574 75.3326 47.5994 75.339 47.333V44.013H74.509V47.344ZM121.995 46.044C121.995 46.193 121.936 46.336 121.831 46.4417C121.726 46.5474 121.583 46.6072 121.434 46.608H121.134C120.442 46.631 119.749 46.5685 119.072 46.422L119.134 46.37C119.408 46.1665 119.633 45.9037 119.792 45.6012C119.95 45.2987 120.039 44.9643 120.05 44.623C120.009 44.4259 119.913 44.2443 119.774 44.0984C119.635 43.9525 119.459 43.8482 119.264 43.797L119.219 43.779L119.173 43.773C118.431 43.6786 117.68 43.6716 116.936 43.752H116.888L116.843 43.768C116.678 43.8122 116.528 43.9 116.409 44.0221C116.29 44.1442 116.206 44.2962 116.166 44.462C116.175 44.8173 116.261 45.1664 116.419 45.4851C116.576 45.8037 116.801 46.0842 117.078 46.307C117.128 46.356 117.178 46.407 117.236 46.45C116.729 46.5645 116.21 46.6152 115.691 46.601H114.477C114.328 46.6007 114.184 46.5412 114.079 46.4354C113.973 46.3297 113.914 46.1864 113.914 46.037V41.357H113.086V46.044C113.087 46.4128 113.233 46.7664 113.494 47.0273C113.755 47.2883 114.108 47.4352 114.477 47.436H115.692C116.54 47.4808 117.388 47.3321 118.17 47.001C119.121 47.3368 120.129 47.4842 121.137 47.435H121.437C121.804 47.4321 122.155 47.2843 122.414 47.0238C122.673 46.7633 122.819 46.4112 122.819 46.044V41.357H121.991V46.044H121.995ZM118.595 45.737C118.45 45.8605 118.296 45.9732 118.135 46.074C117.959 45.9782 117.797 45.8594 117.653 45.721C117.31 45.4516 117.069 45.073 116.971 44.648C116.994 44.6111 117.029 44.5837 117.071 44.571C117.717 44.5052 118.369 44.5116 119.014 44.59C119.061 44.6018 119.104 44.624 119.141 44.6548C119.178 44.6856 119.208 44.7242 119.228 44.768C119.151 45.1598 118.925 45.5065 118.597 45.735L118.595 45.737Z" fill="#58595B"/>
<path fill-rule="evenodd" clip-rule="evenodd" d="M43.932 54.31C43.932 52.647 44.808 51.54 46.132 51.54C46.4994 51.5375 46.8593 51.6446 47.1655 51.8477C47.4717 52.0508 47.7103 52.3406 47.851 52.68L47.122 53.016C47.0419 52.8174 46.9055 52.6465 46.7296 52.5243C46.5538 52.4021 46.3461 52.3339 46.132 52.328C45.362 52.328 44.844 53.091 44.844 54.31C44.844 55.529 45.362 56.296 46.132 56.296C46.3005 56.2975 46.4674 56.2641 46.6223 56.1978C46.7773 56.1315 46.9167 56.0339 47.032 55.911V54.911H45.897V54.135H47.884V56.262C47.6736 56.5236 47.4066 56.734 47.1031 56.8776C46.7997 57.0212 46.4677 57.0942 46.132 57.091C44.803 57.091 43.932 55.964 43.932 54.31ZM48.732 55.043C48.6994 54.7976 48.7178 54.5482 48.7859 54.3102C48.8541 54.0723 48.9706 53.8509 49.1282 53.66C49.2857 53.4692 49.481 53.3128 49.7017 53.2008C49.9224 53.0888 50.1639 53.0235 50.411 53.009C51.473 53.009 52.041 53.9 52.041 55.076V55.309H49.552C49.5413 55.4504 49.5597 55.5925 49.6061 55.7265C49.6525 55.8605 49.7258 55.9836 49.8215 56.0881C49.9173 56.1927 50.0335 56.2765 50.1629 56.3345C50.2923 56.3924 50.4322 56.4232 50.574 56.425C50.7418 56.4204 50.9068 56.3811 51.0586 56.3095C51.2104 56.2379 51.3457 56.1356 51.456 56.009L51.848 56.488C51.5901 56.7713 51.2486 56.9649 50.8731 57.0407C50.4976 57.1165 50.1077 57.0705 49.7601 56.9094C49.4126 56.7484 49.1254 56.4806 48.9405 56.1451C48.7556 55.8096 48.6826 55.4229 48.732 55.043ZM50.404 53.66C50.1487 53.6924 49.9161 53.823 49.7555 54.024C49.5949 54.2251 49.5191 54.4809 49.544 54.737H51.254C51.2717 54.6101 51.2636 54.4808 51.23 54.3571C51.1965 54.2334 51.1383 54.1177 51.0588 54.0171C50.9794 53.9165 50.8805 53.833 50.7679 53.7716C50.6554 53.7102 50.5316 53.6723 50.404 53.66ZM55.099 56.988V54.344C55.1161 54.264 55.114 54.181 55.093 54.1019C55.072 54.0228 55.0326 53.9498 54.978 53.8888C54.9234 53.8278 54.8552 53.7805 54.7789 53.7508C54.7026 53.7212 54.6205 53.7099 54.539 53.718C54.3702 53.7302 54.2075 53.7863 54.0672 53.8809C53.9268 53.9755 53.8136 54.1051 53.739 54.257V56.989H52.929V53.109H53.739V53.628C53.8676 53.444 54.0374 53.2925 54.2347 53.1854C54.4321 53.0783 54.6516 53.0186 54.876 53.011C55.0173 52.9938 55.1607 53.0095 55.295 53.0567C55.4293 53.1039 55.5509 53.1815 55.6503 53.2834C55.7497 53.3852 55.8244 53.5087 55.8684 53.6441C55.9124 53.7794 55.9246 53.9231 55.904 54.064V56.99H55.094L55.099 56.988ZM56.835 55.044C56.8024 54.7988 56.8207 54.5495 56.8887 54.3117C56.9568 54.0739 57.0731 53.8526 57.2305 53.6617C57.3878 53.4709 57.5829 53.3145 57.8033 53.2024C58.0238 53.0902 58.2651 53.0248 58.512 53.01C59.575 53.01 60.144 53.901 60.144 55.077V55.31H57.653C57.6426 55.4513 57.6612 55.5933 57.7077 55.7272C57.7542 55.861 57.8275 55.984 57.9232 56.0885C58.0189 56.193 58.135 56.2769 58.2643 56.3349C58.3935 56.3929 58.5333 56.4239 58.675 56.426C58.843 56.4216 59.0082 56.3824 59.1602 56.3107C59.3122 56.2391 59.4476 56.1367 59.558 56.01L59.948 56.489C59.6912 56.7745 59.3497 56.9701 58.9735 57.0472C58.5973 57.1242 58.2064 57.0786 57.8581 56.917C57.5097 56.7554 57.2224 56.4864 57.0383 56.1495C56.8541 55.8125 56.7829 55.4244 56.835 55.044ZM58.505 53.661C58.2497 53.6931 58.017 53.8237 57.8565 54.0249C57.696 54.226 57.6205 54.4819 57.646 54.738H59.357C59.3747 54.6109 59.3665 54.4815 59.3328 54.3577C59.2992 54.2338 59.2408 54.1181 59.1611 54.0174C59.0815 53.9168 58.9823 53.8333 58.8696 53.7721C58.7568 53.7108 58.6328 53.673 58.505 53.661ZM61.036 56.989V53.109H61.846V53.677C61.9566 53.4858 62.1132 53.3254 62.3017 53.2103C62.4901 53.0952 62.7044 53.0291 62.925 53.018V53.818C62.8557 53.8028 62.7849 53.7951 62.714 53.795C62.5368 53.8076 62.3653 53.863 62.2141 53.9563C62.063 54.0496 61.9367 54.1782 61.846 54.331V56.992H61.036V56.989ZM65.724 56.989V56.593C65.6017 56.7487 65.445 56.8738 65.266 56.9585C65.0871 57.0432 64.8909 57.0851 64.693 57.081C64.5273 57.0815 64.3632 57.0477 64.2112 56.9816C64.0592 56.9156 63.9226 56.8188 63.8098 56.6973C63.6971 56.5758 63.6107 56.4323 63.5562 56.2758C63.5017 56.1193 63.4801 55.9532 63.493 55.788C63.4795 55.6242 63.5008 55.4595 63.5555 55.3045C63.6102 55.1495 63.6971 55.0079 63.8105 54.8889C63.9238 54.7699 64.061 54.6762 64.2131 54.614C64.3652 54.5518 64.5288 54.5225 64.693 54.528C64.889 54.5206 65.084 54.5587 65.2629 54.6392C65.4417 54.7197 65.5996 54.8404 65.724 54.992V54.43C65.7327 54.3287 65.7188 54.2267 65.6831 54.1314C65.6475 54.0361 65.5912 53.95 65.5181 53.8792C65.445 53.8084 65.3571 53.7549 65.2608 53.7223C65.1644 53.6897 65.062 53.6791 64.961 53.691C64.7771 53.6932 64.5956 53.7338 64.4283 53.8101C64.2609 53.8863 64.1113 53.9967 63.989 54.134L63.672 53.57C64.0571 53.2007 64.5725 52.9983 65.106 53.007C65.2908 52.9791 65.4795 52.9933 65.658 53.0487C65.8365 53.104 66.0001 53.199 66.1367 53.3265C66.2733 53.4541 66.3793 53.6109 66.4467 53.7852C66.5141 53.9595 66.5412 54.1468 66.526 54.333V56.986H65.726L65.724 56.989ZM65.724 56.103V55.515C65.6495 55.3846 65.5422 55.2759 65.4128 55.1998C65.2833 55.1236 65.1362 55.0827 64.986 55.081C64.8022 55.0929 64.6297 55.1742 64.5037 55.3086C64.3777 55.443 64.3076 55.6203 64.3076 55.8045C64.3076 55.9887 64.3777 56.166 64.5037 56.3004C64.6297 56.4348 64.8022 56.5162 64.986 56.528C65.1353 56.526 65.2815 56.4856 65.4107 56.4109C65.54 56.3361 65.6478 56.2294 65.724 56.101M67.645 51.627H68.456V56.987H67.645V51.627ZM74.329 56.987L74.037 55.926H72.26L71.968 56.987H70.995L72.608 51.627H73.686L75.3 56.987H74.329ZM73.151 52.577L72.451 55.139H73.863L73.151 52.577ZM78.076 56.987V56.473C77.947 56.6579 77.7759 56.8095 77.5768 56.9154C77.3778 57.0213 77.1564 57.0784 76.931 57.082C76.7905 57.1002 76.6478 57.0855 76.514 57.0391C76.3802 56.9927 76.259 56.9158 76.1599 56.8146C76.0608 56.7134 75.9866 56.5906 75.9431 56.4558C75.8995 56.3211 75.8879 56.178 75.909 56.038V53.106H76.719V55.758C76.7028 55.8375 76.7056 55.9196 76.7271 55.9978C76.7487 56.076 76.7883 56.148 76.8428 56.208C76.8974 56.268 76.9653 56.3143 77.0411 56.3431C77.1169 56.372 77.1984 56.3826 77.279 56.374C77.4461 56.3609 77.6072 56.3056 77.7472 56.2133C77.8871 56.1209 78.0013 55.9946 78.079 55.846V53.106H78.89V56.986H78.079L78.076 56.987ZM80.151 56.118V53.803H79.64V53.103H80.151V52.044H80.962V53.105H81.612V53.805H80.962V55.951C80.962 56.217 81.051 56.376 81.262 56.376C81.3196 56.378 81.3769 56.3674 81.4301 56.3452C81.4832 56.3229 81.531 56.2894 81.57 56.247L81.764 56.847C81.5702 57.0131 81.3186 57.0961 81.064 57.078C80.9363 57.0925 80.8069 57.077 80.6862 57.0328C80.5655 56.9886 80.4568 56.9169 80.3687 56.8233C80.2805 56.7298 80.2154 56.6169 80.1785 56.4938C80.1416 56.3707 80.1339 56.2406 80.156 56.114M84.641 56.983V54.326C84.6562 54.2462 84.6523 54.1639 84.6298 54.0859C84.6072 54.0078 84.5666 53.9362 84.5112 53.8767C84.4557 53.8173 84.3871 53.7718 84.3108 53.7439C84.2345 53.716 84.1527 53.7064 84.072 53.716C83.905 53.7313 83.7446 53.7888 83.6059 53.8831C83.4672 53.9774 83.3547 54.1054 83.279 54.255V56.987H82.467V51.627H83.279V53.627C83.4088 53.4428 83.5796 53.2912 83.7779 53.1841C83.9763 53.077 84.1967 53.0174 84.422 53.01C84.5626 52.9913 84.7056 53.0055 84.8398 53.0517C84.9739 53.0979 85.0955 53.1747 85.1948 53.276C85.294 53.3773 85.3683 53.5004 85.4118 53.6354C85.4552 53.7705 85.4666 53.9138 85.445 54.054V56.989H84.645L84.641 56.983ZM86.37 55.039C86.43 54.7173 86.5804 54.4193 86.8036 54.1799C87.0269 53.9406 87.3136 53.7697 87.6304 53.6874C87.9472 53.6051 88.2808 53.6147 88.5923 53.7151C88.9039 53.8155 89.1803 54.0025 89.3894 54.2543C89.5984 54.5061 89.7315 54.8123 89.7729 55.1369C89.8143 55.4616 89.7624 55.7913 89.6233 56.0876C89.4841 56.3838 89.2635 56.6343 88.9872 56.8097C88.7108 56.9851 88.3903 57.0782 88.063 57.078C87.8138 57.0665 87.5698 57.0031 87.3465 56.8919C87.1232 56.7808 86.9256 56.6242 86.7663 56.4323C86.607 56.2404 86.4894 56.0174 86.4212 55.7775C86.3529 55.5376 86.3355 55.286 86.37 55.039ZM88.923 55.039C88.8531 54.8847 88.7429 54.752 88.604 54.655C88.4651 54.558 88.3027 54.5001 88.1337 54.4876C87.9648 54.4751 87.7955 54.5083 87.6439 54.5838C87.4922 54.6592 87.3636 54.7742 87.2717 54.9165C87.1798 55.0588 87.128 55.2233 87.1216 55.3926C87.1153 55.5619 87.1546 55.7298 87.2356 55.8786C87.3166 56.0275 87.4361 56.1517 87.5817 56.2384C87.7273 56.325 87.8936 56.3708 88.063 56.371C88.2083 56.3427 88.3464 56.2853 88.469 56.2023C88.5916 56.1193 88.6962 56.0124 88.7765 55.888C88.8568 55.7636 88.9111 55.6243 88.9363 55.4785C88.9615 55.3326 88.957 55.1831 88.923 55.039ZM90.683 56.983V53.103H91.494V53.671C91.6043 53.4797 91.7609 53.3191 91.9495 53.2039C92.138 53.0888 92.3524 53.0228 92.573 53.012V53.812C92.5034 53.7967 92.4323 53.7889 92.361 53.789C92.184 53.8018 92.0126 53.8572 91.8617 53.9505C91.7107 54.0439 91.5845 54.1723 91.494 54.325V56.986H90.679L90.683 56.983ZM93.238 52.113C93.2393 51.9783 93.2937 51.8495 93.3893 51.7545C93.485 51.6596 93.6142 51.6063 93.749 51.606C93.8471 51.6082 93.9424 51.6392 94.023 51.6951C94.1036 51.751 94.166 51.8294 94.2023 51.9206C94.2387 52.0117 94.2474 52.1115 94.2275 52.2076C94.2075 52.3036 94.1598 52.3917 94.0901 52.4608C94.0205 52.5299 93.932 52.577 93.8358 52.5962C93.7396 52.6154 93.6398 52.6059 93.549 52.5688C93.4581 52.5317 93.3802 52.4687 93.3249 52.3877C93.2696 52.3066 93.2394 52.2111 93.238 52.113ZM93.338 53.102H94.149V56.982H93.338V53.102ZM95.415 56.113V53.803H94.904V53.103H95.419V52.044H96.23V53.105H96.879V53.805H96.23V55.951C96.23 56.217 96.321 56.376 96.53 56.376C96.5877 56.3777 96.6451 56.367 96.6984 56.3448C96.7516 56.3225 96.7996 56.2892 96.839 56.247L97.033 56.847C96.839 57.0128 96.5876 57.0958 96.333 57.078C96.2051 57.0929 96.0756 57.0776 95.9546 57.0336C95.8336 56.9895 95.7246 56.9178 95.6362 56.8242C95.5479 56.7306 95.4826 56.6177 95.4456 56.4944C95.4085 56.3711 95.4008 56.2408 95.423 56.114M97.718 57.793C97.7988 57.8316 97.8874 57.8515 97.977 57.851C98.0777 57.8603 98.1784 57.8327 98.2603 57.7732C98.3422 57.7138 98.3996 57.6267 98.422 57.528L98.586 57.064L97.272 53.104H98.133L99 56.019L99.876 53.104H100.735L99.187 57.714C99.1312 57.971 98.9832 58.1987 98.7709 58.354C98.5586 58.5094 98.2969 58.5816 98.035 58.557C97.8877 58.5559 97.741 58.5374 97.598 58.502L97.718 57.793ZM103.071 55.039C103.131 54.7173 103.281 54.4194 103.505 54.18C103.728 53.9407 104.014 53.7698 104.331 53.6875C104.648 53.6051 104.981 53.6147 105.293 53.715C105.604 53.8153 105.881 54.0022 106.09 54.254C106.299 54.5057 106.432 54.8117 106.474 55.1363C106.515 55.4609 106.464 55.7906 106.325 56.0869C106.186 56.3832 105.965 56.6337 105.689 56.8092C105.413 56.9847 105.092 57.078 104.765 57.078C104.516 57.0663 104.272 57.0029 104.049 56.8916C103.825 56.7804 103.628 56.6239 103.468 56.432C103.309 56.2402 103.191 56.0172 103.123 55.7774C103.055 55.5375 103.037 55.2861 103.071 55.039ZM105.625 55.039C105.555 54.8847 105.445 54.752 105.306 54.655C105.167 54.558 105.005 54.5001 104.836 54.4876C104.667 54.4751 104.498 54.5083 104.346 54.5838C104.194 54.6592 104.066 54.7742 103.974 54.9165C103.882 55.0588 103.83 55.2233 103.824 55.3926C103.817 55.5619 103.857 55.7298 103.938 55.8786C104.019 56.0275 104.138 56.1517 104.284 56.2384C104.429 56.325 104.596 56.3708 104.765 56.371C104.91 56.3427 105.048 56.2853 105.171 56.2023C105.294 56.1193 105.398 56.0124 105.478 55.888C105.559 55.7636 105.613 55.6243 105.638 55.4785C105.663 55.3326 105.659 55.1831 105.625 55.039ZM107.547 56.983V53.803H107.037V53.103H107.547V52.744C107.527 52.5903 107.541 52.434 107.588 52.2863C107.635 52.1385 107.713 52.0027 107.818 51.8885C107.923 51.7742 108.051 51.6842 108.195 51.6247C108.338 51.5652 108.492 51.5376 108.647 51.544C108.935 51.5324 109.217 51.6315 109.434 51.821L109.158 52.381C109.112 52.33 109.056 52.2893 108.993 52.2616C108.93 52.2339 108.862 52.2197 108.793 52.22C108.727 52.2187 108.662 52.2322 108.603 52.2593C108.543 52.2865 108.49 52.3267 108.448 52.377C108.406 52.4273 108.376 52.4864 108.36 52.5499C108.344 52.6134 108.342 52.6797 108.355 52.744V53.105H109.003V53.805H108.355V56.988H107.539L107.547 56.983ZM111.49 54.306C111.49 52.693 112.34 51.536 113.696 51.536C114.067 51.5359 114.43 51.6489 114.735 51.8599C115.041 52.0708 115.275 52.3698 115.406 52.717L114.66 53.045C114.59 52.8419 114.461 52.6645 114.289 52.5359C114.117 52.4073 113.91 52.3335 113.696 52.324C112.896 52.324 112.406 53.158 112.406 54.306C112.406 55.454 112.9 56.284 113.696 56.284C113.92 56.2714 114.135 56.1885 114.309 56.0471C114.484 55.9056 114.609 55.7128 114.668 55.496L115.414 55.827C115.294 56.1887 115.064 56.5039 114.756 56.7282C114.448 56.9525 114.077 57.0749 113.696 57.078C112.34 57.078 111.49 55.914 111.49 54.306ZM116.143 52.113C116.145 51.9782 116.2 51.8496 116.295 51.7548C116.391 51.6599 116.52 51.6065 116.655 51.606C116.789 51.606 116.917 51.6591 117.011 51.7535C117.105 51.8479 117.159 51.976 117.159 52.1095C117.159 52.243 117.105 52.3711 117.011 52.4655C116.917 52.56 116.789 52.613 116.655 52.613C116.521 52.613 116.393 52.5608 116.297 52.4673C116.201 52.3739 116.146 52.2467 116.143 52.113ZM116.25 53.102H117.061V56.982H116.25V53.102ZM119.007 56.982L117.717 53.102H118.578L119.445 56.026L120.32 53.102H121.18L119.88 56.982H118.999H119.007ZM121.724 52.112C121.725 51.9773 121.78 51.8485 121.875 51.7535C121.971 51.6586 122.1 51.6053 122.235 51.605C122.333 51.6072 122.428 51.6382 122.509 51.6941C122.59 51.75 122.652 51.8284 122.688 51.9196C122.725 52.0107 122.733 52.1105 122.714 52.2066C122.694 52.3026 122.646 52.3907 122.576 52.4598C122.506 52.5289 122.418 52.576 122.322 52.5952C122.226 52.6144 122.126 52.6049 122.035 52.5678C121.944 52.5307 121.866 52.4677 121.811 52.3867C121.756 52.3056 121.725 52.2101 121.724 52.112ZM121.831 53.101H122.64V56.981H121.819V53.101H121.831ZM123.76 51.621H124.571V56.981H123.76V51.621ZM130.442 56.981L130.15 55.92H128.373L128.082 56.981H127.11L128.723 51.621H129.801L131.415 56.981H130.442ZM129.265 52.571L128.565 55.133H129.976L129.265 52.571ZM132.785 56.981L131.497 53.101H132.356L133.219 56.03L134.093 53.106H134.955L133.655 56.986H132.778L132.785 56.981ZM135.503 52.111C135.505 51.9762 135.56 51.8476 135.655 51.7528C135.751 51.6579 135.88 51.6045 136.015 51.604C136.113 51.6064 136.208 51.6375 136.289 51.6936C136.369 51.7496 136.431 51.8281 136.468 51.9192C136.504 52.0104 136.512 52.1102 136.492 52.2062C136.472 52.3022 136.424 52.3901 136.355 52.4591C136.285 52.5282 136.197 52.5751 136.1 52.5943C136.004 52.6134 135.905 52.6038 135.814 52.5667C135.723 52.5296 135.645 52.4666 135.59 52.3856C135.535 52.3046 135.504 52.2091 135.503 52.111ZM135.603 53.1H136.415V56.98H135.603V53.1ZM139.56 56.98V56.593C139.438 56.7487 139.281 56.8738 139.103 56.9585C138.924 57.0432 138.728 57.0851 138.53 57.081C138.364 57.0815 138.2 57.0477 138.048 56.9816C137.896 56.9156 137.76 56.8188 137.647 56.6973C137.534 56.5758 137.448 56.4323 137.393 56.2758C137.339 56.1193 137.317 55.9532 137.33 55.788C137.317 55.6243 137.338 55.4596 137.393 55.3047C137.448 55.1498 137.535 55.0082 137.648 54.8893C137.761 54.7703 137.898 54.6766 138.05 54.6144C138.202 54.5521 138.366 54.5227 138.53 54.528C138.726 54.5207 138.921 54.5588 139.099 54.6393C139.278 54.7198 139.436 54.8405 139.56 54.992V54.43C139.569 54.3287 139.555 54.2267 139.52 54.1315C139.484 54.0362 139.428 53.95 139.355 53.8792C139.282 53.8084 139.194 53.7548 139.098 53.7223C139.001 53.6897 138.899 53.679 138.798 53.691C138.614 53.6934 138.432 53.734 138.265 53.8103C138.097 53.8865 137.948 53.9968 137.825 54.134L137.509 53.57C137.895 53.2011 138.411 52.9989 138.945 53.007C139.13 52.979 139.318 52.9932 139.497 53.0485C139.675 53.1039 139.839 53.1989 139.975 53.3265C140.111 53.4542 140.217 53.611 140.284 53.7853C140.351 53.9597 140.378 54.1469 140.362 54.333V56.986H139.562L139.56 56.98ZM139.56 56.094V55.515C139.486 55.3844 139.379 55.2755 139.25 55.1993C139.121 55.1232 138.974 55.0823 138.824 55.081C138.64 55.0929 138.468 55.1742 138.342 55.3086C138.216 55.443 138.146 55.6203 138.146 55.8045C138.146 55.9887 138.216 56.166 138.342 56.3004C138.468 56.4348 138.64 56.5162 138.824 56.528C138.973 56.5263 139.119 56.4861 139.248 56.4113C139.377 56.3364 139.485 56.2296 139.56 56.101M141.628 56.118V53.803H141.119V53.103H141.628V52.044H142.44V53.105H143.09V53.805H142.44V55.951C142.44 56.217 142.53 56.376 142.74 56.376C142.798 56.378 142.855 56.3674 142.908 56.3452C142.961 56.3229 143.009 56.2894 143.048 56.247L143.243 56.847C143.049 57.0124 142.798 57.0953 142.543 57.078C142.415 57.093 142.285 57.0779 142.164 57.034C142.043 56.99 141.934 56.9183 141.846 56.8247C141.757 56.731 141.692 56.618 141.655 56.4946C141.618 56.3713 141.61 56.2409 141.632 56.114M143.839 52.114C143.841 51.9795 143.895 51.851 143.99 51.7562C144.086 51.6614 144.214 51.6078 144.349 51.607C144.447 51.609 144.543 51.6398 144.623 51.6956C144.704 51.7514 144.767 51.8298 144.803 51.9209C144.84 52.012 144.848 52.1119 144.829 52.208C144.809 52.3041 144.761 52.3923 144.691 52.4615C144.622 52.5307 144.533 52.5779 144.437 52.5972C144.341 52.6164 144.241 52.607 144.15 52.5699C144.059 52.5329 143.981 52.4699 143.926 52.3888C143.871 52.3077 143.84 52.2122 143.839 52.114ZM143.944 53.103H144.756V56.983H143.944V53.103ZM145.68 55.039C145.74 54.7172 145.89 54.4191 146.113 54.1795C146.336 53.94 146.622 53.7688 146.939 53.686C147.256 53.6033 147.589 53.6124 147.901 53.7122C148.213 53.8121 148.49 53.9986 148.699 54.25C148.909 54.5014 149.042 54.8072 149.085 55.1318C149.127 55.4563 149.076 55.7862 148.937 56.0828C148.799 56.3794 148.579 56.6305 148.303 56.8067C148.028 56.983 147.707 57.0771 147.38 57.078C147.13 57.0673 146.886 57.0045 146.662 56.8937C146.438 56.7829 146.239 56.6265 146.079 56.4345C145.919 56.2425 145.801 56.0192 145.732 55.7789C145.663 55.5386 145.646 55.2866 145.68 55.039ZM148.234 55.039C148.164 54.8846 148.054 54.7519 147.915 54.6548C147.776 54.5578 147.613 54.5 147.444 54.4876C147.275 54.4751 147.106 54.5085 146.954 54.5841C146.802 54.6597 146.674 54.7748 146.582 54.9174C146.49 55.0599 146.439 55.2245 146.433 55.3939C146.426 55.5633 146.466 55.7312 146.547 55.88C146.629 56.0287 146.748 56.1529 146.894 56.2393C147.04 56.3257 147.206 56.3712 147.376 56.371C147.521 56.3424 147.659 56.2849 147.781 56.2018C147.904 56.1187 148.008 56.0118 148.088 55.8874C148.168 55.7631 148.222 55.6238 148.248 55.4781C148.273 55.3323 148.268 55.183 148.234 55.039ZM152.161 56.983V54.344C152.178 54.264 152.176 54.181 152.155 54.1019C152.134 54.0228 152.095 53.9498 152.04 53.8888C151.985 53.8278 151.917 53.7805 151.841 53.7508C151.765 53.7212 151.682 53.7099 151.601 53.718C151.432 53.7297 151.269 53.7856 151.129 53.8802C150.988 53.9749 150.875 54.1048 150.801 54.257V56.989H149.989V53.109H150.801V53.628C150.929 53.4441 151.098 53.2925 151.295 53.1854C151.492 53.0783 151.711 53.0186 151.935 53.011C152.076 52.9937 152.22 53.0093 152.354 53.0565C152.489 53.1036 152.611 53.1811 152.71 53.2829C152.81 53.3848 152.885 53.5082 152.929 53.6437C152.974 53.7791 152.986 53.9229 152.966 54.064V56.99H152.156L152.161 56.983Z" fill="#58595B"/>
<path fill-rule="evenodd" clip-rule="evenodd" d="M151.357 10.697C152.027 10.6957 152.669 10.4285 153.143 9.95421C153.616 9.47988 153.882 8.83713 153.882 8.167C153.869 7.50537 153.597 6.87528 153.124 6.41202C152.652 5.94876 152.016 5.68927 151.355 5.68927C150.693 5.68927 150.057 5.94876 149.585 6.41202C149.112 6.87528 148.84 7.50537 148.827 8.167C148.827 8.49935 148.892 8.82852 149.019 9.13565C149.146 9.44278 149.332 9.72185 149.567 9.95686C149.802 10.1919 150.081 10.3782 150.388 10.5052C150.695 10.6322 151.025 10.6974 151.357 10.697ZM151.357 6.13599C151.623 6.13377 151.887 6.18505 152.132 6.28679C152.378 6.38852 152.601 6.53864 152.788 6.7282C152.974 6.91777 153.121 7.14292 153.219 7.39026C153.316 7.6376 153.363 7.90209 153.357 8.168C153.352 8.56471 153.231 8.95119 153.007 9.27872C152.783 9.60625 152.467 9.86015 152.099 10.0084C151.731 10.1567 151.327 10.1927 150.939 10.1118C150.55 10.031 150.195 9.83699 149.916 9.55423C149.638 9.27148 149.45 8.91265 149.375 8.523C149.3 8.13335 149.343 7.73031 149.497 7.36472C149.651 6.99912 149.91 6.68733 150.241 6.46867C150.572 6.25 150.96 6.13424 151.357 6.13599ZM150.866 9.48399V8.43699H151.492L152.019 9.48399H152.561L151.97 8.34399C152.138 8.26478 152.273 8.13066 152.354 7.96386C152.436 7.79705 152.457 7.60755 152.416 7.42673C152.375 7.24591 152.273 7.08462 152.127 6.96955C151.982 6.85449 151.801 6.79255 151.616 6.79399H150.783C150.731 6.78612 150.677 6.79008 150.626 6.8056C150.576 6.82112 150.529 6.84779 150.49 6.88366C150.451 6.91953 150.421 6.96369 150.401 7.01289C150.381 7.06209 150.373 7.11509 150.376 7.168V9.48299H150.861L150.866 9.48399ZM150.874 7.22199H151.574C151.625 7.21895 151.675 7.22684 151.723 7.24514C151.77 7.26343 151.813 7.2917 151.849 7.32803C151.884 7.36436 151.911 7.4079 151.928 7.45568C151.946 7.50347 151.952 7.5544 151.948 7.605C151.951 7.65821 151.942 7.71136 151.923 7.76106C151.904 7.81075 151.874 7.85589 151.837 7.89355C151.799 7.93122 151.754 7.9606 151.704 7.97979C151.654 7.99898 151.601 8.00757 151.548 8.00499H150.872V7.22099L150.874 7.22199ZM56.319 10.644C61.608 10.644 62.27 16.091 62.27 16.091L68.57 14.613C68.532 14.456 67.441 5.03799 56.32 5.03799C49.437 5.03799 43.02 9.23799 43.02 19.983C43.02 30.645 49.785 34.732 56.787 34.732C60.025 34.7721 63.2209 33.9963 66.08 32.476C67.597 31.581 68.452 30.726 68.452 28.897V22.323C68.47 21.9354 68.4029 21.5486 68.2556 21.1896C68.1083 20.8307 67.8842 20.5083 67.5992 20.245C67.3141 19.9818 66.975 19.7841 66.6054 19.6657C66.2359 19.5474 65.845 19.5113 65.46 19.56H56.819V24.427H62.219V28.2C60.6213 29.1043 58.8048 29.5497 56.97 29.487C53.432 29.487 49.737 27.345 49.737 19.987C49.737 12.787 52.965 10.649 56.31 10.649M84.31 5.00399C81.664 5.00399 80.07 6.134 79.293 8.467L70.742 34.344H77.505C78.0169 34.3056 78.4989 34.0878 78.866 33.729L87.006 25.68C87.175 25.511 87.129 25.431 86.935 25.431H85.835C85.384 25.4271 84.9403 25.5453 84.551 25.773L79.073 28.923L84.273 11.339C84.273 11.339 90.454 32.627 90.959 34.339H97.921L89.482 8.41999C88.782 6.24299 86.996 4.995 84.312 4.995M112.272 10.561C117.56 10.561 118.262 16.399 118.262 16.399L124.562 15.075C124.562 15.075 123.63 5.04399 112.275 5.04399C105.392 5.04399 98.975 9.13299 98.975 19.875C98.975 30.535 105.352 34.775 112.236 34.775C123.357 34.775 124.564 24.968 124.564 24.968L118.264 23.605C118.264 23.605 117.755 29.247 112.352 29.247C109.009 29.247 105.741 27.106 105.741 19.87C105.741 12.67 108.929 10.57 112.274 10.57M139.732 5.00399C137.086 5.00399 135.49 6.134 134.713 8.467L126.159 34.344H132.922C133.434 34.3058 133.916 34.088 134.283 33.729L142.425 25.68C142.593 25.511 142.546 25.431 142.352 25.431H141.252C140.801 25.4271 140.357 25.5453 139.968 25.773L134.49 28.923L139.69 11.339C139.69 11.339 145.874 32.627 146.379 34.339H153.341L144.902 8.41999C144.202 6.24299 142.413 4.995 139.731 4.995" fill="#274479"/>
<path fill-rule="evenodd" clip-rule="evenodd" d="M40.893 34.424C40.9432 34.4192 40.9896 34.3949 41.0223 34.3565C41.0549 34.318 41.0713 34.2684 41.068 34.218C41.0711 34.1787 41.0635 34.1393 41.0459 34.1041C41.0282 34.0688 41.0013 34.039 40.968 34.018C39.1785 33.4277 37.5979 32.3324 36.4168 30.8641C35.2356 29.3959 34.5043 27.6174 34.311 25.743L32.711 14.343C31.967 9.048 28.068 5.437 23.522 5.351H0.169955C0.147609 5.3502 0.125327 5.35389 0.104434 5.36186C0.0835414 5.36982 0.0644774 5.38191 0.0483428 5.39739C0.0322082 5.41288 0.0193564 5.43144 0.0105315 5.45199C0.00170663 5.47253 -0.00289886 5.49464 -0.00301831 5.517C-0.00963639 5.55663 -0.00352975 5.59733 0.0144377 5.63327C0.0324052 5.6692 0.0612843 5.69852 0.0969573 5.717C1.88836 6.31471 3.46937 7.41638 4.65045 8.88994C5.83154 10.3635 6.56259 12.1464 6.75595 14.025L8.35596 25.425C9.09996 30.7 12.996 34.331 17.542 34.436L40.893 34.424ZM30.933 29.55H26.771C26.3087 29.5925 25.8439 29.5012 25.432 29.287L22.59 27.775L24.232 26.905L30.954 29.467C31.053 29.511 31.053 29.55 30.933 29.55ZM27.633 17.533C27.6227 17.5457 27.6081 17.554 27.592 17.5565C27.5759 17.5589 27.5595 17.5551 27.546 17.546C26.2321 16.7966 24.8453 16.1831 23.407 15.715C23.229 15.657 22.976 15.571 22.742 15.515C22.642 20.221 22.199 23.879 21.742 23.884C21.285 23.889 20.842 20.221 20.742 15.515C20.507 15.57 20.255 15.657 20.077 15.715C18.6383 16.1831 17.2512 16.7966 15.937 17.546C15.9237 17.5553 15.9074 17.5591 15.8914 17.5567C15.8753 17.5543 15.8609 17.5458 15.851 17.533C15.8441 17.5233 15.84 17.5119 15.839 17.5C15.7905 17.2579 15.8017 17.0076 15.8713 16.7707C15.941 16.5338 16.0672 16.3174 16.239 16.14C16.6534 15.7607 17.1031 15.4218 17.582 15.128C18.1595 14.7482 18.7656 14.4138 19.395 14.128C19.561 14.05 19.77 13.955 19.934 13.886C18.8894 13.3049 17.7914 12.8257 16.655 12.455C16.6485 12.4534 16.6423 12.4505 16.637 12.4465C16.6316 12.4425 16.627 12.4374 16.6236 12.4317C16.6202 12.4259 16.6179 12.4195 16.6169 12.4129C16.616 12.4063 16.6163 12.3995 16.618 12.393C16.6206 12.3835 16.6262 12.3751 16.634 12.369C16.7651 12.2192 16.9289 12.1016 17.1126 12.0251C17.2964 11.9487 17.4953 11.9154 17.694 11.928C18.0652 11.9765 18.4328 12.0504 18.794 12.149C19.194 12.249 19.594 12.359 19.982 12.487C20.207 12.561 20.429 12.64 20.65 12.727L20.76 12.769C20.896 11.498 21.286 10.569 21.744 10.569C22.202 10.569 22.592 11.493 22.728 12.769L22.838 12.727C23.058 12.64 23.281 12.561 23.505 12.487C23.897 12.359 24.2933 12.2463 24.694 12.149C25.0552 12.0504 25.4227 11.9765 25.794 11.928C25.9926 11.9154 26.1915 11.9487 26.3753 12.0251C26.5591 12.1016 26.7228 12.2192 26.854 12.369C26.8617 12.3751 26.8673 12.3835 26.87 12.393C26.8716 12.3995 26.872 12.4063 26.871 12.4129C26.87 12.4195 26.8678 12.4259 26.8643 12.4317C26.8609 12.4374 26.8563 12.4425 26.851 12.4465C26.8456 12.4505 26.8395 12.4534 26.833 12.455C25.6966 12.8257 24.5985 13.3049 23.554 13.886C23.717 13.954 23.926 14.049 24.093 14.128C24.7223 14.4138 25.3285 14.7482 25.906 15.128C26.3848 15.4218 26.8345 15.7607 27.249 16.14C27.4205 16.3175 27.5466 16.534 27.6162 16.7708C27.6859 17.0077 27.6971 17.2579 27.649 17.5C27.6483 17.5118 27.6445 17.5232 27.638 17.533H27.633ZM16.579 24.472L17.645 24.466C17.7946 24.4629 17.9437 24.4866 18.085 24.536L20.631 25.536L19.309 26.036L16.56 24.571C16.466 24.513 16.466 24.475 16.584 24.472H16.579ZM25.714 24.537L26.777 24.545C26.897 24.545 26.897 24.587 26.798 24.645L18.055 29.29C17.6416 29.5031 17.1762 29.5943 16.713 29.553H12.553C12.434 29.553 12.434 29.514 12.533 29.473L25.274 24.614C25.416 24.56 25.5671 24.5339 25.719 24.537H25.714Z" fill="#0075C9"/>
</g>
<line x1="180.5" y1="2.18557e-08" x2="180.5" y2="62" stroke="#0175CA"/>
<defs>
<clipPath id="clip0_9_712">
<rect width="153.875" height="53.563" fill="white" transform="translate(0 5)"/>
</clipPath>
</defs>
</svg>
