<svg width="30" height="30" viewBox="0 0 30 30" fill="none" xmlns="http://www.w3.org/2000/svg">
<g clip-path="url(#clip0_367_885)">
<path fill-rule="evenodd" clip-rule="evenodd" d="M16.0609 22.5689L19.0345 25.3103C19.3175 24.8893 19.3175 24.3276 19.6718 23.906C19.843 23.703 20.0617 23.5454 20.3085 23.4474C20.5553 23.3494 20.8226 23.314 21.0864 23.3443C21.3645 23.4033 21.6086 23.5684 21.767 23.8043C21.9255 24.0403 21.9858 24.3287 21.9352 24.6084C21.7231 25.451 20.803 25.6615 20.025 25.1701C19.8838 25.0998 19.6718 25.5917 19.8125 25.8017C20.1587 26.2809 20.6581 26.6276 21.2281 26.7845C21.3326 26.638 21.4706 26.5186 21.6306 26.4362C21.7905 26.3538 21.9679 26.3108 22.1478 26.3108C22.3277 26.3108 22.5051 26.3538 22.665 26.4362C22.825 26.5186 22.963 26.638 23.0675 26.7845C23.1475 26.8966 23.2021 27.0249 23.2277 27.1603C23.2532 27.2957 23.249 27.435 23.2154 27.5687C23.1817 27.7023 23.1194 27.827 23.0328 27.9342C22.9462 28.0413 22.8373 28.1284 22.7137 28.1893C21.3688 28.751 19.9542 27.8381 18.8933 26.9955C18.2561 27.9782 16.558 29.0319 15.5675 27.7677C15.4913 27.656 15.4393 27.5296 15.4149 27.3966C15.3905 27.2636 15.3942 27.127 15.4257 26.9955C15.488 26.7176 15.6555 26.4747 15.893 26.3176C16.1305 26.1605 16.4196 26.1015 16.6997 26.1529C16.8419 26.1647 16.9795 26.2088 17.1021 26.2817C17.2247 26.3547 17.3291 26.4546 17.4073 26.5739C17.5485 26.7845 17.3364 27.1357 17.6194 27.0658C17.7329 27.0483 17.8393 26.9996 17.9268 26.9252C18.0142 26.8508 18.0794 26.7535 18.1149 26.6443C17.4073 25.3098 16.0625 24.6079 15.0016 23.6246C13.9402 24.6074 12.7376 25.3098 11.8883 26.5729C11.7471 26.7834 12.1712 27.0648 12.3838 27.0648C12.6668 27.0648 12.525 26.4322 12.8788 26.292C13.2096 26.1299 13.5909 26.1047 13.9402 26.2217C14.1561 26.3312 14.3331 26.5045 14.447 26.7181C14.5609 26.9317 14.6063 27.1752 14.5769 27.4155C14.4357 28.1179 13.6573 28.3983 13.0206 28.3284C12.6262 28.2531 12.2522 28.0953 11.923 27.8654C11.5939 27.6356 11.3169 27.3387 11.1104 26.9945C10.1194 27.7667 8.9897 28.5395 7.64487 28.3983C7.49819 28.373 7.35881 28.316 7.23656 28.2311C7.11431 28.1462 7.01216 28.0355 6.93728 27.9069C6.80007 27.6616 6.76029 27.3736 6.82586 27.1004C6.89142 26.8271 7.05753 26.5885 7.29109 26.4322C7.53819 26.2963 7.82699 26.2569 8.10147 26.3218C8.37595 26.3867 8.61653 26.5512 8.77659 26.7834C9.3466 26.6268 9.84595 26.2801 10.1918 25.8007C10.3335 25.5907 10.1209 25.0988 9.90885 25.1691C9.54542 25.3791 9.1194 25.4537 8.70625 25.3796C8.49035 25.2701 8.31337 25.0968 8.19937 24.8832C8.08536 24.6697 8.03986 24.4262 8.06902 24.1858C8.09741 24.0398 8.15552 23.9011 8.23973 23.7784C8.32394 23.6557 8.43246 23.5517 8.55855 23.4727C8.68465 23.3937 8.82562 23.3414 8.97275 23.3191C9.11988 23.2969 9.27002 23.3051 9.41385 23.3433C9.75788 23.4611 10.0719 23.6529 10.334 23.905C10.6878 24.3265 10.6878 24.8877 10.9707 25.3093C11.9614 24.3969 12.9519 23.4831 13.9423 22.5679C10.2631 19.0574 5.02711 17.7229 0.00366211 17.5827C2.92547 17.0443 5.93371 17.2127 8.77711 18.0741C11.0586 18.8176 13.1906 19.9588 15.0745 21.445C17.1179 19.7306 19.5183 18.4942 22.1006 17.8262C24.6828 17.1582 27.3817 17.0753 30 17.5838C24.9766 17.7239 19.7406 19.0584 16.0609 22.5689ZM19.4576 5.3536C19.7498 5.72548 19.9527 6.15942 20.0508 6.62204C20.1489 7.08465 20.1396 7.5636 20.0235 8.02204C20.0351 7.78568 20.0112 7.54892 19.9526 7.31963C19.8897 7.49997 19.8657 7.69159 19.8823 7.88187C19.8432 7.66185 19.7718 7.44884 19.6702 7.2498C19.6246 7.32215 19.5947 7.40328 19.5824 7.48792C19.5701 7.57256 19.5757 7.65884 19.5988 7.74118C19.6046 7.46864 19.5309 7.20032 19.3868 6.96893C19.3547 7.06937 19.307 7.16414 19.2456 7.2498C19.2738 7.12941 19.2757 7.00435 19.2513 6.88314C19.2268 6.76193 19.1765 6.64742 19.1038 6.54739C19.0654 6.58521 19.0405 6.63466 19.033 6.68807C19.033 6.47704 19.1038 6.19618 18.8918 6.12635C18.75 6.12635 18.8209 6.33687 18.8209 6.40721C18.8146 6.12544 18.7151 5.85371 18.538 5.63446C18.4671 5.56463 18.4671 5.77514 18.4671 5.84549C18.3963 5.63445 18.3963 5.28325 18.1837 5.21342C18.1519 5.25211 18.1291 5.29738 18.1169 5.34595C18.1048 5.39452 18.1035 5.44518 18.1133 5.49428C18.0425 5.28325 17.9013 5.07273 17.8299 4.86221L17.6887 5.0029C17.658 4.90316 17.6032 4.81251 17.5291 4.73899C17.455 4.66546 17.364 4.61132 17.264 4.58135C17.1932 4.58135 17.1931 4.72152 17.1931 4.79187C17.6178 5.35359 18.1837 5.77462 18.538 6.33686C18.7598 6.83878 18.8624 7.38522 18.8378 7.93341C18.8133 8.4816 18.6621 9.01666 18.3963 9.4967C18.4671 9.28618 18.6083 8.93497 18.3963 8.86463C18.2545 8.79428 18.3962 9.07566 18.2545 9.14549C18.2774 8.74237 18.2296 8.33835 18.1133 7.9517C18.0701 7.98484 18.0349 8.0273 18.0104 8.07593C17.9858 8.12456 17.9726 8.1781 17.9716 8.23256C17.9716 8.16273 17.9716 8.09239 17.9013 8.09239C17.7595 8.16273 17.8299 8.30291 17.8299 8.4436C17.7362 8.06432 17.7867 7.66377 17.9716 7.31963C17.957 7.17033 17.9085 7.02633 17.8299 6.8986C17.7869 6.93197 17.752 6.97449 17.7275 7.02308C17.7031 7.07166 17.6898 7.12509 17.6887 7.17946C17.6762 6.87076 17.6286 6.56448 17.5469 6.26653C17.5046 6.29803 17.4745 6.34321 17.4616 6.3944C17.4488 6.44559 17.4541 6.49965 17.4766 6.54739C17.3349 6.33687 17.5469 6.05601 17.3349 5.91532C17.3029 6.01589 17.255 6.1107 17.1931 6.19618C17.225 6.08753 17.2286 5.97257 17.2038 5.8621C17.1791 5.75163 17.1266 5.64927 17.0514 5.56463C17.0196 5.60332 16.9969 5.64858 16.9847 5.69715C16.9725 5.74572 16.9713 5.79638 16.9811 5.84549C16.9947 5.72446 16.9757 5.60199 16.9259 5.49082C16.8762 5.37966 16.7975 5.28386 16.6981 5.21342C16.666 5.30467 16.6422 5.39868 16.6273 5.49428H16.4856C16.4856 5.42393 16.4856 5.3536 16.4152 5.3536C16.3449 5.3536 16.2735 5.35359 16.2735 5.42393C16.3444 5.63445 16.6273 5.63445 16.6981 5.84549C16.6981 6.056 16.9107 6.12635 16.9107 6.33686C16.8916 6.29962 16.864 6.26738 16.8301 6.24272C16.7963 6.21805 16.7572 6.20164 16.7158 6.19481C16.6745 6.18797 16.6322 6.1909 16.5922 6.20335C16.5522 6.2158 16.5157 6.23744 16.4856 6.26653C16.8394 6.40722 17.1932 6.61773 17.1228 7.03928C17.1092 6.96151 17.0761 6.88847 17.0265 6.82704C16.9769 6.7656 16.9125 6.71777 16.8394 6.68807C16.7685 6.68807 16.6273 6.68808 16.6273 6.75791C16.7863 6.86644 16.9151 7.01352 17.0018 7.18539C17.0884 7.35727 17.1301 7.54831 17.1228 7.74066C17.1239 7.66813 17.1046 7.59674 17.0672 7.53464C17.0297 7.47253 16.9755 7.42222 16.9107 7.38945C16.8569 7.39671 16.8069 7.42142 16.7685 7.4598C17.0357 7.84947 17.1374 8.32919 17.0514 8.79376C17.0514 8.65359 17.1228 8.44308 16.9811 8.51342C16.8393 8.51342 16.9107 8.72394 16.9107 8.86411L16.8394 8.79376C16.6982 9.0048 16.9107 9.14498 16.8394 9.35549C16.768 9.56601 16.7685 9.70669 16.6981 9.91773C16.7095 9.68137 16.6856 9.44464 16.6273 9.21531C16.5062 9.52794 16.4578 9.86399 16.4856 10.1981C16.4856 10.1277 16.4856 10.0574 16.4152 10.0574C16.2735 10.1277 16.4152 10.3382 16.2735 10.4086C16.2616 9.91431 16.2144 9.42151 16.1323 8.93394C16.2026 8.93394 16.2735 8.93394 16.2735 8.86359C16.2735 8.72342 16.3444 8.44256 16.2026 8.44256C16.0609 8.37222 16.2026 8.72342 16.0609 8.79325C16.093 8.67885 16.0899 8.55746 16.0521 8.44483C16.0143 8.3322 15.9435 8.23355 15.8488 8.16169C15.7071 8.09135 15.9202 8.37222 15.7071 8.44256C15.4242 8.51291 15.5659 8.23153 15.4242 8.09135C15.2476 10.456 15.2476 12.8305 15.4242 15.1951C15.5061 15.5406 15.5536 15.8934 15.5659 16.2482C15.5204 16.3207 15.4906 16.402 15.4784 16.4867C15.4662 16.5714 15.4719 16.6578 15.495 16.7401C15.5006 16.9674 15.5745 17.1876 15.7071 17.3722C15.7785 17.6526 15.495 17.9339 15.5659 18.2148C15.7685 18.7337 16.0287 19.2282 16.3418 19.6889H13.5114C13.7949 19.1277 14.2873 18.6358 14.219 18.0038C14.1607 17.7986 14.137 17.5852 14.1487 17.3722C14.5025 16.81 14.219 16.3186 14.2899 15.6865C14.3684 15.5587 14.4168 15.4148 14.4316 15.2655C14.5728 12.8762 14.5728 10.4806 14.4316 8.09135C14.3891 8.12272 14.3588 8.16787 14.3459 8.21909C14.3329 8.27032 14.3382 8.32444 14.3607 8.37222C14.2899 8.51291 14.0778 8.44256 14.0069 8.30187C14.0778 8.30187 14.0778 8.23152 14.0778 8.16169C13.9361 7.95066 13.9361 8.23153 13.8652 8.23153C13.7685 8.40214 13.7433 8.60406 13.7949 8.79325C13.6532 8.72342 13.7949 8.37222 13.6531 8.44256C13.5114 8.44256 13.5823 8.72342 13.5823 8.86359C13.5823 8.93394 13.6531 8.93394 13.724 8.93394C13.6417 9.42149 13.5944 9.9143 13.5823 10.4086C13.4411 10.3382 13.5823 10.1277 13.4411 10.0574C13.3702 10.0574 13.3702 10.1277 13.3702 10.1981C13.398 9.86399 13.3495 9.52794 13.2285 9.21531C13.1701 9.44462 13.1464 9.68139 13.1581 9.91773C13.0873 9.70669 13.0873 9.56653 13.0164 9.35549C12.9456 9.14446 13.1582 9.0048 13.0164 8.79376L12.9456 8.86411C12.9456 8.72394 13.0164 8.51342 12.8747 8.51342C12.7335 8.44308 12.8044 8.65359 12.8044 8.79376C12.7447 8.57605 12.7392 8.34703 12.7885 8.12674C12.8379 7.90644 12.9404 7.7016 13.0873 7.53014C13.1582 7.4598 13.0873 7.38945 13.0164 7.38945C12.8044 7.38945 12.8044 7.59997 12.7335 7.74066C12.7262 7.54836 12.7677 7.35734 12.8543 7.18547C12.9409 7.0136 13.0696 6.86649 13.2285 6.75791C13.2285 6.68808 13.0873 6.68807 13.0164 6.68807C12.9434 6.71784 12.8791 6.7657 12.8296 6.82713C12.7801 6.88856 12.747 6.96156 12.7335 7.03928C12.6626 6.61773 13.0164 6.40722 13.3702 6.26653C13.3401 6.23744 13.3037 6.2158 13.2637 6.20335C13.2238 6.19089 13.1815 6.18797 13.1402 6.19481C13.0989 6.20165 13.0598 6.21805 13.026 6.24272C12.9922 6.26739 12.9647 6.29963 12.9456 6.33686C13.0712 6.05829 13.266 5.81649 13.5114 5.63446C13.4776 5.59158 13.4347 5.55675 13.3858 5.53251C13.3368 5.50827 13.2831 5.49521 13.2285 5.49428C13.3702 5.42393 13.2285 5.28325 13.3702 5.21342C13.3702 5.14307 13.2994 5.14307 13.2285 5.14307C13.1181 5.22374 13.0284 5.32949 12.9669 5.45162C12.9054 5.57375 12.8738 5.70875 12.8747 5.84549C12.8845 5.79638 12.8833 5.74572 12.8711 5.69715C12.8589 5.64858 12.8361 5.60332 12.8044 5.56463C12.7292 5.64927 12.6767 5.75163 12.6519 5.8621C12.6272 5.97257 12.6308 6.08753 12.6626 6.19618C12.5209 6.12635 12.6626 5.91532 12.5209 5.91532C12.3088 6.05601 12.5209 6.33687 12.3797 6.54739C12.4022 6.49961 12.4075 6.44549 12.3946 6.39427C12.3816 6.34304 12.3513 6.29789 12.3088 6.26653C12.2271 6.56448 12.1796 6.87076 12.1671 7.17946C12.1662 7.12504 12.153 7.07153 12.1286 7.0229C12.1041 6.97428 12.069 6.93179 12.0259 6.8986C11.964 6.97684 11.9246 7.07055 11.9121 7.16957C11.8996 7.26859 11.9145 7.36914 11.9551 7.46032C12.0561 7.60179 12.1161 7.76836 12.1286 7.94174C12.1411 8.11511 12.1056 8.28858 12.0259 8.44308C12.0259 8.30239 12.0968 8.16221 11.9551 8.09187C11.8842 8.09187 11.8842 8.16221 11.8842 8.23204C11.8833 8.17762 11.8701 8.12411 11.8457 8.07548C11.8212 8.02686 11.7861 7.98437 11.743 7.95118C11.6262 8.33775 11.5783 8.74181 11.6012 9.14497C11.4595 9.07514 11.6013 8.79376 11.4595 8.86411C11.2475 8.93445 11.3892 9.28566 11.4595 9.49618C11.2102 9.03594 11.068 8.52536 11.0436 8.0025C11.0191 7.47965 11.113 6.95802 11.3183 6.47652C11.6597 5.8985 12.0894 5.37739 12.5918 4.93204C12.6626 4.8617 12.8044 4.65118 12.5918 4.65118C12.5407 4.64577 12.4891 4.65061 12.4399 4.66542C12.3908 4.68023 12.3451 4.70471 12.3055 4.73743C12.266 4.77015 12.2334 4.81044 12.2096 4.85594C12.1858 4.90144 12.1714 4.95123 12.1671 5.00239L12.0259 4.8617C11.955 5.07222 11.8138 5.28273 11.743 5.49377C11.7528 5.44463 11.7515 5.39391 11.7393 5.34532C11.727 5.29674 11.7041 5.2515 11.6721 5.2129C11.4595 5.28273 11.4595 5.63394 11.3892 5.84497C11.3892 5.77463 11.3892 5.56411 11.3183 5.63394C11.1412 5.85319 11.0417 6.12493 11.0354 6.4067C11.0354 6.33635 11.1063 6.12584 10.9645 6.12584C10.7525 6.19566 10.8228 6.47652 10.8228 6.68756C10.8154 6.63422 10.7907 6.58479 10.7525 6.54687C10.6797 6.64685 10.6293 6.76137 10.6049 6.8826C10.5804 7.00383 10.5824 7.1289 10.6107 7.24928C10.549 7.16374 10.5011 7.06894 10.469 6.96842C10.3251 7.1999 10.2514 7.46815 10.2569 7.74066C10.2683 7.5737 10.2442 7.40622 10.1861 7.24928C10.0841 7.44814 10.0126 7.66122 9.97401 7.88135C9.99015 7.69104 9.96601 7.49946 9.90315 7.31911C9.84487 7.54844 9.82099 7.78517 9.83229 8.02152C9.67757 7.41899 9.70219 6.78439 9.90315 6.19566C10.0416 5.90003 10.2073 5.61796 10.3981 5.35308C10.6223 5.08358 10.8835 4.84726 11.174 4.65118C11.5987 4.29997 12.1645 4.22963 12.5188 3.80808C12.3776 3.6679 12.165 3.87842 12.0238 3.73825L11.8821 3.87842C11.8821 3.80808 11.8821 3.73825 11.8118 3.73825C11.7571 3.73914 11.7033 3.75217 11.6543 3.77641C11.6052 3.80065 11.5622 3.8355 11.5283 3.87842C11.5283 3.80808 11.5283 3.73825 11.4575 3.73825C11.3983 3.75188 11.3426 3.77763 11.2939 3.81386C11.2452 3.85009 11.2046 3.89603 11.1745 3.94877C11.1671 3.89543 11.1424 3.846 11.1042 3.80808C11.0355 3.82412 10.9727 3.85893 10.9226 3.90861C10.8726 3.95829 10.8373 4.02091 10.8207 4.08946L10.6795 3.94877C10.6363 3.98191 10.6011 4.02437 10.5766 4.073C10.552 4.12163 10.5388 4.17517 10.5378 4.22963C10.5378 4.15928 10.5378 4.08946 10.4669 4.08946C10.4238 4.12265 10.3887 4.16514 10.3643 4.21376C10.3398 4.26239 10.3267 4.3159 10.3257 4.37032L10.2549 4.29997C10.1764 4.42778 10.1279 4.57174 10.1132 4.72101C10.1056 4.66785 10.0809 4.61862 10.0428 4.58084C9.96332 4.73356 9.91514 4.90062 9.90108 5.07221C9.7988 4.69894 9.84477 4.30058 10.0294 3.9604C10.214 3.62022 10.5229 3.36456 10.8916 3.24687C11.2762 3.06163 11.6956 2.95962 12.1224 2.9475C12.5491 2.93537 12.9736 3.01341 13.3682 3.17652C13.4066 3.13869 13.4315 3.08925 13.439 3.03584C13.3681 2.82532 13.1561 2.40376 12.8726 2.68514C12.868 2.64691 12.8719 2.60812 12.8842 2.57161C12.8965 2.5351 12.9167 2.50179 12.9435 2.47411C12.8023 2.2636 12.5897 2.54446 12.4485 2.47411L12.5188 2.40377C12.3776 2.19325 12.2359 2.47411 12.0947 2.40377L12.1651 2.33393C12.1651 2.26359 12.0947 2.26359 12.0238 2.26359C11.9055 2.30082 11.8062 2.38237 11.7466 2.49118C11.76 2.40169 11.7844 2.26359 11.6701 2.26359C11.4928 2.39277 11.3475 2.56088 11.2454 2.75497C11.1992 2.6235 11.2024 2.47971 11.2545 2.35045C11.3065 2.22118 11.4039 2.1153 11.5283 2.05256C11.8135 1.85389 12.1413 1.72501 12.4854 1.67631C12.8295 1.62761 13.1803 1.66046 13.5094 1.77221C13.888 1.93685 14.191 2.23752 14.3587 2.6148C14.4948 2.32505 14.59 2.0178 14.6416 1.70187C14.637 1.74002 14.641 1.77871 14.6533 1.81512C14.6655 1.85154 14.6858 1.88477 14.7125 1.91239C14.8542 1.63153 14.7833 1.28031 14.9245 0.999451C15.0663 1.28031 14.9954 1.63153 15.1371 1.91239C15.1637 1.88472 15.1838 1.85147 15.196 1.81506C15.2082 1.77865 15.2121 1.73998 15.2075 1.70187C15.2593 2.01775 15.3545 2.32496 15.4904 2.6148C15.5966 2.3861 15.754 2.18485 15.9503 2.02657C16.1466 1.86829 16.3766 1.7572 16.6226 1.70187C17.3985 1.56118 18.674 1.77222 18.6037 2.75497C18.5017 2.56076 18.3564 2.39262 18.179 2.26359C18.0647 2.26359 18.089 2.4017 18.103 2.4917C18.0435 2.38249 17.9439 2.30069 17.8252 2.26359C17.7549 2.19324 17.684 2.26359 17.684 2.33393C17.684 2.40428 17.7549 2.40377 17.7549 2.47411C17.6131 2.40377 17.4719 2.26359 17.3302 2.40377C17.4011 2.40377 17.4011 2.47411 17.4011 2.54445C17.2718 2.46641 17.1267 2.41834 16.9764 2.40377C16.8347 2.47411 17.0468 2.6148 16.9764 2.68514C16.9445 2.64279 16.8989 2.61271 16.8474 2.5999C16.7959 2.5871 16.7416 2.59235 16.6935 2.6148C16.5298 2.76894 16.408 2.96226 16.3397 3.17652C17.192 2.88229 18.1222 2.90729 18.9575 3.24687C19.2974 3.3674 19.5931 3.58747 19.8062 3.87842C19.9616 4.25595 20.0106 4.66881 19.948 5.07221C19.8063 4.93204 19.948 4.72101 19.8062 4.58084C19.7681 4.61862 19.7434 4.66785 19.7359 4.72101C19.6901 4.47751 19.5658 4.25571 19.3821 4.08946C19.3112 4.08946 19.3112 4.15928 19.3112 4.22963C19.3103 4.17517 19.297 4.12163 19.2725 4.073C19.248 4.02437 19.2128 3.98191 19.1695 3.94877L19.0283 4.08946C19.0119 4.02094 18.9767 3.95834 18.9267 3.90866C18.8768 3.85897 18.814 3.82415 18.7454 3.80808C18.7067 3.8458 18.6816 3.89528 18.674 3.94877C18.605 3.8798 18.5345 3.80963 18.4625 3.73825C18.3207 3.73825 18.2499 3.87842 18.1087 3.73825C18.0378 3.66791 17.9669 3.73825 17.9669 3.87842C17.8966 3.80808 17.8966 3.80808 17.8252 3.73825C17.684 3.87842 17.4719 3.6679 17.3302 3.80808C17.9716 4.37083 18.8918 4.58136 19.4576 5.3536ZM11.7466 2.52635C11.7466 2.53256 11.7466 2.53825 11.7466 2.54497C11.7456 2.53928 11.7461 2.53308 11.7466 2.52635ZM11.7513 2.4917C11.7513 2.50463 11.7476 2.51601 11.7466 2.52635C11.7473 2.5147 11.7488 2.50312 11.7513 2.4917ZM18.1133 2.52635C18.1138 2.53255 18.1138 2.53877 18.1133 2.54497C18.1133 2.53825 18.1123 2.53256 18.1118 2.52635H18.1133ZM18.1092 2.49221C18.1114 2.50346 18.1128 2.51488 18.1133 2.52635C18.1107 2.51601 18.1092 2.50462 18.1076 2.49221H18.1092Z" fill="#0175CA"/>
</g>
<defs>
<clipPath id="clip0_367_885">
<rect width="30" height="27.4138" fill="white" transform="translate(0 1)"/>
</clipPath>
</defs>
</svg>
