<svg width="19" height="19" viewBox="0 0 19 19" fill="none" xmlns="http://www.w3.org/2000/svg">
<path d="M15.125 8.0625C15.125 9.67969 14.5977 11.1914 13.7188 12.3867L18.1484 16.8516C18.6055 17.2734 18.6055 18.0117 18.1484 18.4336C17.7266 18.8906 16.9883 18.8906 16.5664 18.4336L12.1016 13.9688C10.9062 14.8828 9.39453 15.375 7.8125 15.375C3.76953 15.375 0.5 12.1055 0.5 8.0625C0.5 4.05469 3.76953 0.75 7.8125 0.75C11.8203 0.75 15.125 4.05469 15.125 8.0625ZM7.8125 13.125C9.60547 13.125 11.2578 12.1758 12.1719 10.5938C13.0859 9.04688 13.0859 7.11328 12.1719 5.53125C11.2578 3.98438 9.60547 3 7.8125 3C5.98438 3 4.33203 3.98438 3.41797 5.53125C2.50391 7.11328 2.50391 9.04688 3.41797 10.5938C4.33203 12.1758 5.98438 13.125 7.8125 13.125Z" fill="white"/>
</svg>
